<svg version="1.2" baseProfile="tiny" viewBox="0 0 28.166 68.393" xmlns:xlink="http://www.w3.org/1999/xlink" xmlns="http://www.w3.org/2000/svg">
<path style="fill:#ffffff;" d="M14.6221,32.6898L5.102,32.6898L5.102,33.0899L5.102,33.0899L14.6229,33.0899L14.6229,35.76L12.742,35.76L13.3729,39.1502L14.232,39.1502L14.232,39.1502C14.232,67.27,14.3621,67.3897,14.512,67.3897L17.5719,67.3897C17.722,67.3897,17.8519,67.27,17.8519,67.1099L17.8519,39.1502C18.3121,39.1502,18.7219,39.1502,18.9921,39.1502C20.1331,39.1502,20.593,37.6497,21.182,36.3899C21.772,35.1301,21.9419,34.6199,21.9419,33.78C21.9419,32.9401,21.9419,32.6898,21.9419,32.6898L14.6221,32.6898L14.6221,32.6898Z"/>
</svg>