<svg version="1.2" baseProfile="tiny" viewBox="0 0 28.166 68.393" xmlns:xlink="http://www.w3.org/1999/xlink" xmlns="http://www.w3.org/2000/svg">
<path style="fill:#ffffff;" d="M21.3501,21.8153C21.3729,21.8153,21.3929,21.8399,21.3929,21.8707L21.3929,22.3823C21.3929,22.4131,21.3729,22.4377,21.3501,22.4377L19.9041,22.4377C19.8801,22.4377,19.8601,22.4131,19.8601,22.3823L19.8601,21.8707C19.8601,21.8399,19.8801,21.8153,19.9041,21.8153L21.3501,21.8153L21.3501,21.8153M10.0299,22.4377C10.053,22.4377,10.073,22.4131,10.073,22.3823L10.073,21.8707C10.073,21.8399,10.053,21.8153,10.0299,21.8153L8.5819,21.8153L8.5819,21.8153C8.5591,21.8153,8.538,21.8399,8.538,21.8707L8.538,22.3823C8.538,22.4131,8.5591,22.4377,8.5819,22.4377L10.0299,22.4377L10.0299,30.3008M27.1661,25.222L27.1661,30.3008C27.1661,30.3938,27.0909,30.4698,26.998,30.4698L26.7309,30.4698L26.7309,31.2747C26.7309,31.5962,26.716,31.6728,26.629,31.7371L26.629,32.1727C26.629,32.235,26.578,32.2863,26.5169,32.2863L26.0899,32.2863C26.0279,32.2863,25.9781,32.235,25.9781,32.1727L25.9781,32.4621C25.9781,32.5858,25.8769,32.6871,25.7539,32.6871L4.4001,32.6871L4.4001,32.6871C4.3609,32.6871,4.3249,32.6761,4.2919,32.6583C4.2919,32.6583,4.2911,32.6583,4.2891,32.657C4.2181,32.6241,3.076,32.077,2.4961,31.8239C1.897,31.562,1.748,31.075,1.748,30.0649C1.748,30.002,1.748,29.9363,1.748,29.8713L1.4491,29.8713L1.4491,29.517L1.4491,29.517L0.9999,29.517L0.9999,26.0092L0.9999,26.0092L1.4491,26.0092L1.4491,25.6549L1.748,25.6549C1.748,25.5899,1.748,25.5229,1.748,25.46C1.748,24.4491,1.897,23.9629,2.4961,23.7009C3.094,23.439,4.2919,22.8672,4.2919,22.8672C4.3249,22.8487,4.3609,22.8378,4.4001,22.8378L8.494,22.8378C7.982,22.8378,7.5651,22.4213,7.5651,21.9097L7.5651,18.0927C7.5651,17.5811,7.982,17.1639,8.494,17.1639C7.8949,17.1639,7.4141,17.1639,7.0871,17.1639L6.975,17.274C6.775,17.471,6.45,17.471,6.2489,17.274L6.052,17.0798C5.6831,16.9799,5.351,16.7918,5.089,16.5279L4.8381,16.4588C4.5691,16.3849,4.406,16.1018,4.477,15.8309L4.5449,15.5669C4.4981,15.3898,4.4649,15.2092,4.4649,15.017C4.4649,14.8249,4.4981,14.6443,4.5449,14.4679L4.477,14.2032C4.406,13.9323,4.5699,13.6499,4.8381,13.5753L5.089,13.5062C5.351,13.2429,5.6831,13.0549,6.052,12.955L6.2489,12.7621C6.3061,12.7061,6.3731,12.6698,6.4441,12.6459L6.4441,11.9271C6.4441,11.9879,6.3931,12.0392,6.3309,12.0392L3.9551,12.0392L3.9551,11.646C3.892,12.0392,3.843,11.9879,3.843,11.9271L3.843,11.646C3.843,11.7082,3.792,11.7588,3.7309,11.7588L3.3951,11.7588L3.3951,11.7588C3.332,11.7588,3.2819,11.7082,3.2819,11.646L3.2819,12.4598C3.2819,12.5221,3.232,12.572,3.1701,12.572L1.7671,12.572L1.7671,12.572C1.7049,12.572,1.655,12.5221,1.655,9.1701L1.655,9.231C1.655,9.1701,1.706,9.1188,1.7671,9.1188L3.169,9.1188C3.232,9.1188,3.2811,9.1701,3.2811,9.231L3.2811,10.0449C3.2811,9.9833,3.332,9.932,3.394,9.932L3.73,9.932L3.73,9.932C3.792,9.932,3.8421,9.9833,3.8421,10.0449L3.8421,9.7652C3.8421,9.7029,3.892,9.653,3.9539,9.653L6.33,9.653C6.3931,9.653,6.443,9.7043,6.443,9.7652L6.443,8.437L4.2821,8.437L4.2821,8.437C4.19,8.437,4.1139,8.361,4.1139,8.268L4.1139,6.5842C4.1139,6.4919,4.19,6.4159,4.2821,6.4159L5.1121,6.4159C5.0679,6.2101,5.0409,5.9502,5.0409,5.6301C5.0409,2.5723,5.342,1.718,5.4659,1.1969C5.4969,1.0642,5.7419,0.9999,5.7419,0.9999L11.3819,0.9999C11.3819,0.9999,11.6559,1.0697,11.692,1.2181C11.819,1.7591,12.1119,2.6119,12.1119,5.6308L22.1799,5.6308L22.1799,5.6308C22.8821,5.6308,23.135,6.0241,23.135,6.6129C23.135,7.2018,23.135,11.7479,23.135,11.7479C23.3589,11.7479,23.471,11.9729,23.471,12.2259L23.471,16.8842C23.471,17.1359,23.331,17.1639,23.106,17.1639C23.064,17.1639,22.4489,17.1639,21.4811,17.1639C21.9931,17.1639,22.4111,17.5811,22.4111,18.0927L22.4111,21.9097C22.4111,22.422,21.9931,22.8378,21.4811,22.8378L25.755,22.8378C25.8781,22.8378,25.9789,22.939,25.9789,23.0628L25.9789,23.3507C25.9789,23.2892,26.0299,23.2393,26.091,23.2393L26.518,23.2393C26.58,23.2393,26.6301,23.2892,26.6301,23.3507L26.6301,23.7871C26.7169,23.8507,26.7321,23.928,26.7321,24.2487L26.7321,25.0551L26.9991,25.0551C27.0909,25.0537,27.1661,25.1303,27.1661,25.222M15.2981,17.5558L8.494,17.5558L8.494,17.5558C8.1991,17.5558,7.958,17.7959,7.958,18.092L7.958,21.909C7.958,22.2038,8.1991,22.4452,8.494,22.4452L10.3121,22.4452L10.3121,22.8378L15.297,22.8378L15.297,17.5558M19.663,22.4452L21.48,22.4452C21.776,22.4452,22.0171,22.2038,22.0171,21.909L22.0171,18.092C22.0171,17.7959,21.776,17.5558,21.48,17.5558L16.785,17.5558L16.785,22.8378L19.663,22.8378L19.663,22.4452Z"/>
</svg>