<svg version="1.2" baseProfile="tiny" id="EdgeSVG_zu6uN" x="0px" y="0px" width="28.166px" height="68.393px" viewBox="0 0 28.166 68.393" xmlns:xlink="http://www.w3.org/1999/xlink" xmlns="http://www.w3.org/2000/svg">
  <linearGradient id="SVGID_1_" gradientUnits="userSpaceOnUse" x1="0" y1="34.1963" x2="28.166" y2="34.1963">
    <stop offset="0" style="stop-color:#000000;stop-opacity:0.5"/>
    <stop offset="1" style="stop-color:#000000;stop-opacity:0.5"/>
  </linearGradient>
  <path fill="url(#SVGID_1_)" d="M27.731,24.334v-0.086c0-0.09-0.001-0.188-0.008-0.288c-0.001-0.007-0.001-0.012-0.001-0.019&#xD;&#xA;&#x9;&#x9;c-0.008-0.104-0.025-0.21-0.055-0.317c-0.002-0.009-0.004-0.018-0.007-0.027c-0.01-0.031-0.02-0.062-0.031-0.092V23.35&#xD;&#xA;&#x9;&#x9;c0-0.56-0.423-1.005-0.962-1.082c-0.225-0.258-0.545-0.431-0.913-0.431H23.41v-3.702c0.774-0.126,1.061-0.727,1.061-1.253v-4.658&#xD;&#xA;&#x9;&#x9;c0-0.391-0.128-0.733-0.336-0.992V6.612c0-1.204-0.768-1.982-1.955-1.982H13.1c-0.052-2.107-0.265-2.957-0.397-3.491l-0.038-0.153&#xD;&#xA;&#x9;&#x9;c-0.109-0.46-0.496-0.817-1.034-0.955L11.508,0H5.614L5.489,0.032C4.971,0.168,4.598,0.518,4.493,0.966L4.457,1.111&#xD;&#xA;&#x9;&#x9;c-0.153,0.597-0.403,1.6-0.414,4.353c-0.525,0.114-0.929,0.561-0.929,1.12v1.535H1.767c-0.613,0-1.112,0.499-1.112,1.112v3.228&#xD;&#xA;&#x9;&#x9;c0,0.613,0.499,1.112,1.112,1.112h1.402c0.147,0,0.287-0.032,0.416-0.084c-0.126,0.297-0.165,0.633-0.077,0.965l0.01,0.039&#xD;&#xA;&#x9;&#x9;c-0.002,0.015-0.002,0.031-0.004,0.046H3.513c-0.002,0.006-0.002,0.013-0.003,0.02c-0.002,0.005-0.005,0.01-0.006,0.015&#xD;&#xA;&#x9;&#x9;L3.49,14.627l-0.007,0.057c-0.002,0.014-0.001,0.028-0.003,0.042c-0.011,0.076-0.015,0.152-0.014,0.229&#xD;&#xA;&#x9;&#x9;c0,0.012-0.002,0.023-0.002,0.035l-0.001,0.056l0.059,1.323c0.114,0.401,0.386,0.75,0.767,0.943&#xD;&#xA;&#x9;&#x9;c0.089,0.045,0.183,0.083,0.282,0.11l0.056,0.016c0.108,0.089,0.22,0.174,0.34,0.248c0.028,0.018,0.052,0.043,0.08,0.06l0.72,0.417&#xD;&#xA;&#x9;&#x9;c0.235,0.158,0.511,0.244,0.799,0.253v0.842v2.58H5.4h-1l-1,0.344l-0.443,0.209c-0.308,0.144-0.63,0.292-0.862,0.394&#xD;&#xA;&#x9;&#x9;c-0.936,0.41-1.217,1.188-1.304,1.87H0.449v0.354H0v5.508h0.449v0.354h0.342c0.087,0.683,0.368,1.46,1.305,1.87&#xD;&#xA;&#x9;&#x9;c0.215,0.094,0.508,0.229,0.793,0.362l0.512,0.24v0.345h0.702v0.401h9.519v0.519v0.15h-2.087l1.006,5.395h0.691v0.966v25.995&#xD;&#xA;&#x9;&#x9;c0,0.707,0.575,1.281,1.281,1.281h3.06c0.706,0,1.28-0.575,1.28-1.281V41.117v-0.966h0.14c1.622,0,2.302-1.544,2.847-2.786&#xD;&#xA;&#x9;&#x9;c0.082-0.185,0.163-0.371,0.248-0.552c0.453-0.972,0.689-1.572,0.789-2.207l0.063-0.826v-0.094h2.816&#xD;&#xA;&#x9;&#x9;c0.369,0,0.688-0.172,0.913-0.431c0.539-0.077,0.962-0.522,0.962-1.083V32.02c0.013-0.033,0.023-0.065,0.032-0.098&#xD;&#xA;&#x9;&#x9;c0.002-0.006,0.004-0.013,0.006-0.02c0.029-0.108,0.047-0.216,0.055-0.321c0.001-0.006,0.001-0.011,0.001-0.017&#xD;&#xA;&#x9;&#x9;c0.007-0.101,0.008-0.198,0.008-0.288v-0.086c0.259-0.214,0.435-0.526,0.435-0.888v-5.079C28.166,24.86,27.99,24.549,27.731,24.334&#xD;&#xA;&#x9;&#x9;z M21.018,20.815L18.859,20.8v0.645h-0.196v0.393h-0.878v-0.212v-3.07h3.232v0.702V20.815z M8.958,18.849v-0.288v-0.006h5.34v3.07&#xD;&#xA;&#x9;&#x9;v0.212h-2.985v-0.393h-0.257l-0.025-0.63H8.958v-1.558V18.849z"/>
</svg>