<svg version="1.2" baseProfile="tiny" viewBox="0 0 55.922 42.461" xmlns:xlink="http://www.w3.org/1999/xlink" xmlns="http://www.w3.org/2000/svg">
<path style="fill:#ffffff;" d="M55.4472,0.149C55.152,-0.034,54.7818,-0.0501,54.4742,0.1062L27.961,13.382L1.4473,0.1062C1.1402,-0.0488,0.77,-0.034,0.4748,0.149C0.1801,0.332,0.0,0.6531,0.0,1.0L0.0,28.0001C0.0,28.347,0.1801,28.668,0.4748,28.851C0.6353,28.9499,0.817,29.0,0.9999,29.0C1.1531,29.0,1.3069,28.9652,1.4473,28.8939L25.7208,16.7398L13.5661,41.0131C13.4112,41.323,13.4269,41.6912,13.6097,41.9859C13.792,42.281,14.1142,42.461,14.4609,42.461L41.4611,42.461C41.8078,42.461,42.13,42.281,42.3123,41.9859C42.4951,41.6912,42.5108,41.323,42.3559,41.0131L30.2012,16.7398L54.4742,28.8939C54.6151,28.9652,54.7689,29.0,54.9221,29.0C55.105,29.0,55.2867,28.9499,55.4472,28.851C55.7419,28.6688,55.922,28.347,55.922,28.0001L55.922,1.0C55.922,0.6531,55.7419,0.332,55.4472,0.149M1.9998,2.619L25.728,14.5L1.9998,26.381L1.9998,2.619M16.0798,40.4611L27.961,16.733L39.8422,40.4611L16.0798,40.4611L16.0798,40.4611M53.9222,26.381L30.194,14.5L53.9222,2.619L53.9222,26.381Z"/>
</svg>