<?xml version="1.0" encoding="UTF-8" standalone="no"?>
<!-- Created with Inkscape (http://www.inkscape.org/) -->

<svg
   width="98.457901mm"
   height="41.866901mm"
   viewBox="0 0 98.457901 41.866901"
   version="1.1"
   id="svg1"
   xml:space="preserve"
   inkscape:version="1.3 (0e150ed6c4, 2023-07-21)"
   sodipodi:docname="Lone Pm.svg"
   xmlns:inkscape="http://www.inkscape.org/namespaces/inkscape"
   xmlns:sodipodi="http://sodipodi.sourceforge.net/DTD/sodipodi-0.dtd"
   xmlns="http://www.w3.org/2000/svg"
   xmlns:svg="http://www.w3.org/2000/svg"><sodipodi:namedview
     id="namedview1"
     pagecolor="#ffffff"
     bordercolor="#000000"
     borderopacity="0.25"
     inkscape:showpageshadow="false"
     inkscape:pageopacity="0.0"
     inkscape:pagecheckerboard="true"
     inkscape:deskcolor="#d1d1d1"
     inkscape:document-units="mm"
     showborder="false"
     borderlayer="false"
     inkscape:zoom="0.80087682"
     inkscape:cx="257.21808"
     inkscape:cy="56.812732"
     inkscape:window-width="1920"
     inkscape:window-height="1137"
     inkscape:window-x="-8"
     inkscape:window-y="-8"
     inkscape:window-maximized="1"
     inkscape:current-layer="layer1" /><defs
     id="defs1" /><g
     inkscape:label="Layer 1"
     inkscape:groupmode="layer"
     id="layer1"
     transform="translate(-37.086907,-133.4469)"><g
       id="g1"
       transform="translate(2.3125695,2.9733038)"><path
         style="fill:#b9b9b9;fill-opacity:1"
         d="m 110.52894,163.11641 c 0.59134,-0.0179 1.55897,-0.0179 2.15031,0 0.59133,0.0179 0.10751,0.0325 -1.07516,0.0325 -1.18266,0 -1.66648,-0.0146 -1.07515,-0.0325 z m 0,-0.19679 c 0.59134,-0.0179 1.55897,-0.0179 2.15031,0 0.59133,0.0179 0.10751,0.0325 -1.07516,0.0325 -1.18266,0 -1.66648,-0.0146 -1.07515,-0.0325 z m 3.51604,-0.91063 c 0,-0.0541 0.0785,-0.0984 0.17435,-0.0984 0.0959,0 0.17435,0.0443 0.17435,0.0984 0,0.0541 -0.0785,0.0984 -0.17435,0.0984 -0.0959,0 -0.17435,-0.0443 -0.17435,-0.0984 z m -8.33969,-0.16622 c 0.11187,-0.0248 0.29494,-0.0248 0.40681,0 0.11188,0.0248 0.0203,0.045 -0.2034,0.045 -0.22375,0 -0.31528,-0.0202 -0.20341,-0.045 z m 8.43413,-0.0978 c 0.0839,-0.0284 0.18415,-0.0249 0.22278,0.008 0.0386,0.0327 -0.03,0.0559 -0.15256,0.0517 -0.1354,-0.005 -0.16294,-0.028 -0.0702,-0.0594 z m -6.16551,-0.10249 c 0.20891,-0.0219 0.52274,-0.0215 0.69739,0.001 0.17466,0.0225 0.004,0.0404 -0.37983,0.0398 -0.38357,-5.6e-4 -0.52647,-0.0189 -0.31756,-0.0408 z M 105.56,161.52297 c 0,-0.0515 0.4113,-0.0842 0.92871,-0.0738 1.21004,0.0243 1.21103,0.16624 0.001,0.16624 -0.51142,0 -0.92986,-0.0416 -0.92986,-0.0924 z m 2.41391,-0.17566 c 0.20891,-0.0219 0.52274,-0.0214 0.69739,0.001 0.17466,0.0224 0.004,0.0404 -0.37983,0.0398 -0.38357,-5.5e-4 -0.52647,-0.0189 -0.31756,-0.0408 z m -16.317451,-1.84738 c 2.3e-4,-0.64941 0.01904,-0.90227 0.0418,-0.56192 0.02276,0.34035 0.02257,0.87169 -4.18e-4,1.18074 -0.02299,0.30905 -0.04162,0.0306 -0.04139,-0.61882 z m -0.0352,-8.07656 c 0.0056,-0.11463 0.03312,-0.13794 0.07022,-0.0594 0.03358,0.071 0.02945,0.15589 -0.0092,0.18859 -0.03862,0.0327 -0.0661,-0.0254 -0.06105,-0.12914 z m -0.538841,-3.92759 c -5.2e-5,-1.62351 0.01587,-2.30148 0.03539,-1.5066 0.01951,0.79488 0.01956,2.12321 9.4e-5,2.95184 -0.01946,0.82863 -0.03543,0.17827 -0.03548,-1.44524 z m -0.0056,-4.52615 c 1.81e-4,-0.75764 0.01843,-1.05458 0.04055,-0.65986 0.02212,0.39471 0.02197,1.0146 -3.3e-4,1.37752 -0.0223,0.36293 -0.0404,0.04 -0.04022,-0.71766 z m -0.03668,-7.19101 c 0.0056,-0.11463 0.03312,-0.13794 0.07022,-0.0594 0.03358,0.071 0.02945,0.1559 -0.0092,0.18859 -0.03862,0.0327 -0.06609,-0.0254 -0.06105,-0.12914 z"
         id="path7" /><path
         style="fill:#a3a3a3;fill-opacity:1"
         d="m 107.97183,168.72704 c 0.20776,-0.0218 0.54774,-0.0218 0.75551,0 0.20776,0.0218 0.0378,0.0397 -0.37776,0.0397 -0.41553,0 -0.58552,-0.0179 -0.37775,-0.0397 z m 6.16759,-0.38961 c 0.0839,-0.0284 0.18415,-0.0249 0.22278,0.008 0.0386,0.0327 -0.03,0.0559 -0.15256,0.0517 -0.1354,-0.005 -0.16294,-0.028 -0.0702,-0.0594 z m -7.56239,-2.26103 c 0.0799,-0.0273 0.21068,-0.0273 0.29059,0 0.0799,0.0273 0.0145,0.0496 -0.14529,0.0496 -0.15982,0 -0.22521,-0.0223 -0.1453,-0.0496 z m 1.11694,-1.08257 c 0.0418,-0.063 0.0102,-0.13445 -0.0701,-0.15872 -0.0803,-0.0243 -0.11835,-0.0699 -0.0845,-0.10145 0.0338,-0.0315 0.13799,-0.0173 0.23149,0.0316 0.14486,0.0758 0.14614,0.10775 0.009,0.21604 -0.0952,0.075 -0.13025,0.0801 -0.0855,0.0125 z m -1.05661,-1.28192 c 0.11309,-0.0249 0.27001,-0.0233 0.3487,0.004 0.0787,0.0269 -0.0138,0.0474 -0.20562,0.0454 -0.19178,-0.002 -0.25617,-0.0241 -0.14308,-0.049 z m 11.59199,-0.20815 c 0,-0.0437 0.48382,-0.0842 1.07516,-0.0898 0.89411,-0.009 0.98708,0.004 0.5521,0.0722 -0.68556,0.10814 -1.62726,0.1183 -1.62726,0.0175 z m -7.70041,-0.28895 c 0.59134,-0.0179 1.55897,-0.0179 2.15031,0 0.59133,0.0179 0.10751,0.0325 -1.07516,0.0325 -1.18266,0 -1.66648,-0.0146 -1.07515,-0.0325 z m 7.70041,-0.0743 c 0,-0.12182 0.2131,-0.14759 1.22045,-0.14759 1.00735,0 1.22044,0.0258 1.22044,0.14759 0,0.12182 -0.21309,0.14759 -1.22044,0.14759 -1.00735,0 -1.22045,-0.0258 -1.22045,-0.14759 z m 0,-0.35574 c 0,-0.0479 0.5492,-0.087 1.22045,-0.087 0.67124,0 1.22044,0.0392 1.22044,0.087 0,0.0479 -0.5492,0.087 -1.22044,0.087 -0.67125,0 -1.22045,-0.0392 -1.22045,-0.087 z m -11.52882,-0.44944 c 0.0839,-0.0284 0.18416,-0.0249 0.22278,0.008 0.0386,0.0327 -0.03,0.0559 -0.15255,0.0517 -0.13541,-0.005 -0.16295,-0.028 -0.0702,-0.0594 z m 7.43889,-0.19679 c 0.0839,-0.0284 0.18415,-0.0249 0.22278,0.008 0.0386,0.0327 -0.03,0.0559 -0.15256,0.0517 -0.1354,-0.005 -0.16294,-0.028 -0.0702,-0.0594 z M 105.56,162.00899 c 0,-0.0541 0.15691,-0.0984 0.3487,-0.0984 0.19178,0 0.34869,0.0443 0.34869,0.0984 0,0.0541 -0.15691,0.0984 -0.34869,0.0984 -0.19179,0 -0.3487,-0.0443 -0.3487,-0.0984 z m 2.09219,-0.19679 c 0,-0.0541 0.28767,-0.0984 0.63928,-0.0984 0.3516,0 0.63927,0.0443 0.63927,0.0984 0,0.0541 -0.28767,0.0984 -0.63927,0.0984 -0.35161,0 -0.63928,-0.0443 -0.63928,-0.0984 z m 6.48723,-0.16561 c 0.0839,-0.0284 0.18415,-0.0249 0.22278,0.008 0.0386,0.0327 -0.03,0.0559 -0.15256,0.0517 -0.1354,-0.005 -0.16294,-0.028 -0.0702,-0.0594 z m -6.16551,-0.39767 c 0.20891,-0.0219 0.52274,-0.0214 0.69739,0.001 0.17466,0.0224 0.004,0.0404 -0.37983,0.0398 -0.38357,-5.6e-4 -0.52647,-0.0189 -0.31756,-0.0408 z m -5.9811,-1.15863 c 6.5e-4,-0.3247 0.0223,-0.44567 0.0482,-0.26882 0.0259,0.17685 0.0253,0.44252 -0.001,0.59037 -0.0265,0.14785 -0.0477,0.003 -0.047,-0.32155 z m -6.777513,-8.65872 c 0,-0.11962 0.187263,-0.1476 0.987977,-0.1476 0.800713,0 0.987977,0.028 0.987977,0.1476 0,0.11961 -0.187264,0.14759 -0.987977,0.14759 -0.800714,0 -0.987977,-0.028 -0.987977,-0.14759 z m 0.377756,-7.0085 c 0.239729,-0.0212 0.632014,-0.0212 0.871744,0 0.23973,0.0212 0.04359,0.0386 -0.435872,0.0386 -0.47946,0 -0.675602,-0.0174 -0.435872,-0.0386 z m -0.377756,-4.45448 v -4.32936 h 0.871744 0.871745 v 1.21388 c 0,0.66764 0.0346,2.61586 0.07689,4.32937 l 0.07689,3.11547 H 96.16393 95.215297 Z m 0,-4.87053 v -0.44278 h 0.871744 0.871745 v 0.44278 0.44277 h -0.871745 -0.871744 z"
         id="path6" /><path
         style="fill:#8c8c8c;fill-opacity:1"
         d="m 130.9326,172.16897 c 0.43417,-0.019 1.11413,-0.0188 1.51102,3.2e-4 0.3969,0.0192 0.0417,0.0347 -0.7894,0.0345 -0.83106,-1.7e-4 -1.15579,-0.0158 -0.72162,-0.0348 z m -39.088049,-0.91088 v -0.68877 h 1.452908 1.452907 v 0.68877 0.68876 h -1.452907 -1.452908 z m 38.356759,0 v -0.68877 h 1.45291 1.45291 v 0.68877 0.68876 h -1.45291 -1.45291 z m 1.13327,-0.8597 c 0.33562,-0.0199 0.88482,-0.0199 1.22044,0 0.33563,0.0199 0.061,0.0361 -0.61022,0.0361 -0.67124,0 -0.94584,-0.0163 -0.61022,-0.0361 z m -24.63405,-2.55294 c 0.0839,-0.0284 0.18416,-0.0249 0.22278,0.008 0.0386,0.0327 -0.03,0.0559 -0.15255,0.0517 -0.13541,-0.005 -0.16295,-0.028 -0.0702,-0.0594 z m 0.83542,-2.67143 c 0,-0.0451 0.0785,-0.082 0.17435,-0.082 0.0959,0 0.17435,0.0369 0.17435,0.082 0,0.0451 -0.0785,0.082 -0.17435,0.082 -0.0959,0 -0.17435,-0.0369 -0.17435,-0.082 z m -4.06814,-0.219 c 0,-0.0573 0.0523,-0.0768 0.11623,-0.0434 0.0639,0.0334 0.11624,0.0803 0.11624,0.1042 0,0.0239 -0.0523,0.0434 -0.11624,0.0434 -0.0639,0 -0.11623,-0.0469 -0.11623,-0.1042 z m 2.09219,-0.63376 v -0.63956 l 0.37776,-2.1e-4 0.37775,-2e-4 -0.039,0.63977 c -0.0386,0.63355 -0.0423,0.63977 -0.37776,0.63977 H 105.56 Z m 1.19138,0.5744 c -0.21302,-0.0728 -0.18735,-0.62359 0.0291,-0.62359 0.12177,0 0.17435,0.10386 0.17435,0.34438 0,0.18941 -0.0131,0.34088 -0.0291,0.33661 -0.016,-0.004 -0.0944,-0.0301 -0.17435,-0.0574 z m 0.52745,-0.5498 c -0.0249,-0.33823 -0.003,-0.65703 0.0478,-0.70844 0.0512,-0.0514 0.0931,0.22532 0.0931,0.61497 0,0.38964 -0.0215,0.70844 -0.0478,0.70844 -0.0263,0 -0.0682,-0.27674 -0.0931,-0.61497 z m 0.91249,0.46738 c -0.0368,-0.0812 -0.17316,-0.1476 -0.30302,-0.1476 -0.20871,0 -0.23611,-0.0628 -0.23611,-0.54117 v -0.54117 h 0.63928 c 0.61657,0 0.63976,0.01 0.65303,0.27059 l 0.0138,0.27058 0.0887,-0.29518 c 0.0668,-0.22211 0.0921,-0.11858 0.10248,0.41818 l 0.0138,0.71336 h -0.45249 c -0.295,0 -0.47579,-0.0514 -0.5194,-0.14759 z m 5.85366,-0.49198 c 0,-0.5029 0.0373,-0.63956 0.17435,-0.63956 0.13709,0 0.17435,0.13666 0.17435,0.63956 0,0.50291 -0.0373,0.63957 -0.17435,0.63957 -0.1371,0 -0.17435,-0.13666 -0.17435,-0.63957 z m -4.53307,0.1476 v -0.29519 h 2.09218 2.09219 v 0.29519 0.29518 h -2.09219 -2.09218 z m 4.33544,-0.19679 c 0,-0.29765 0.0218,-0.41941 0.0484,-0.27059 0.0266,0.14882 0.0266,0.39235 0,0.54117 -0.0266,0.14882 -0.0484,0.0271 -0.0484,-0.27058 z m -7.27032,-0.85233 c 0.0799,-0.0273 0.21068,-0.0273 0.29059,0 0.0799,0.0273 0.0145,0.0496 -0.14529,0.0496 -0.15982,0 -0.22521,-0.0223 -0.1453,-0.0496 z m 3.95191,-0.10654 c 0.59134,-0.0178 1.55897,-0.0178 2.15031,0 0.59133,0.0179 0.10751,0.0325 -1.07516,0.0325 -1.18266,0 -1.66648,-0.0146 -1.07515,-0.0325 z m 3.29275,-0.27927 c 0.006,-0.11462 0.0331,-0.13794 0.0702,-0.0594 0.0336,0.071 0.0295,0.15589 -0.009,0.18859 -0.0386,0.0327 -0.0661,-0.0254 -0.061,-0.12915 z m -10.8406,-0.2066 c 0.0839,-0.0284 0.18415,-0.0249 0.22278,0.008 0.0386,0.0327 -0.03,0.056 -0.15256,0.0517 -0.1354,-0.005 -0.16294,-0.028 -0.0702,-0.0594 z m 3.625,-0.32637 c 0,-0.0541 0.0785,-0.0984 0.17435,-0.0984 0.0959,0 0.17435,0.0443 0.17435,0.0984 0,0.0541 -0.0785,0.0984 -0.17435,0.0984 -0.0959,0 -0.17435,-0.0443 -0.17435,-0.0984 z m 7.43889,-0.19679 c 0,-0.0541 0.0785,-0.0984 0.17435,-0.0984 0.0959,0 0.17435,0.0443 0.17435,0.0984 0,0.0541 -0.0785,0.0984 -0.17435,0.0984 -0.0959,0 -0.17435,-0.0443 -0.17435,-0.0984 z m -11.15833,-0.39358 c 0,-0.35422 0.0291,-0.39357 0.29058,-0.39357 0.15982,0 0.29058,0.0443 0.29058,0.0984 0,0.0541 -0.0523,0.0984 -0.11623,0.0984 -0.0639,0 -0.11623,0.0885 -0.11623,0.19678 0,0.10824 0.0654,0.19747 0.14529,0.1983 0.0969,0.001 0.0872,0.0333 -0.0291,0.0969 -0.34142,0.18678 -0.46493,0.10836 -0.46493,-0.29519 z m 2.67335,0.29519 c 0,-0.0541 0.15691,-0.0984 0.3487,-0.0984 0.19178,0 0.34869,0.0443 0.34869,0.0984 0,0.0541 -0.15691,0.0984 -0.34869,0.0984 -0.19179,0 -0.3487,-0.0443 -0.3487,-0.0984 z m 0.92986,-0.19679 c 0,-0.0541 0.10461,-0.0984 0.23247,-0.0984 0.12785,0 0.23246,0.0443 0.23246,0.0984 0,0.0541 -0.10461,0.0984 -0.23246,0.0984 -0.12786,0 -0.23247,-0.0443 -0.23247,-0.0984 z m 1.16233,0 c 0,-0.0541 0.28767,-0.0984 0.63928,-0.0984 0.3516,0 0.63927,0.0443 0.63927,0.0984 0,0.0541 -0.28767,0.0984 -0.63927,0.0984 -0.35161,0 -0.63928,-0.0443 -0.63928,-0.0984 z m 7.29359,-0.46562 c 0.2717,-0.0207 0.71629,-0.0207 0.98798,0 0.27169,0.0207 0.0494,0.0377 -0.49399,0.0377 -0.54339,0 -0.76568,-0.017 -0.49399,-0.0377 z m -19.697181,-0.39436 c 0.36992,-0.0196 0.945271,-0.0194 1.278558,4.1e-4 0.333288,0.0198 0.03063,0.0358 -0.672581,0.0356 -0.703207,-2.3e-4 -0.975897,-0.0164 -0.605977,-0.036 z m 3.78058,0.006 c 0.08391,-0.0284 0.184156,-0.0249 0.222779,0.008 0.03862,0.0327 -0.03003,0.056 -0.152555,0.0517 -0.135404,-0.005 -0.162946,-0.028 -0.07022,-0.0594 z m -3.901057,-0.20254 c 0.431514,-0.0189 1.137627,-0.0189 1.56914,0 0.431514,0.0189 0.07846,0.0344 -0.78457,0.0344 -0.863027,0 -1.216083,-0.0155 -0.78457,-0.0344 z m 0,-0.19679 c 0.431514,-0.0189 1.137627,-0.0189 1.56914,0 0.431514,0.0189 0.07846,0.0344 -0.78457,0.0344 -0.863027,0 -1.216083,-0.0155 -0.78457,-0.0344 z m -0.261523,-0.41901 v -0.29518 h 1.220442 1.220443 v 0.29518 0.29518 h -1.220443 -1.220442 z m 0.348698,-0.49197 0.406814,-0.0725 -0.397128,-0.0129 c -0.779701,-0.0254 -0.253157,-0.11993 0.702394,-0.12606 1.343288,-0.009 1.380107,-0.004 1.380107,0.1623 0,0.12284 -0.209522,0.14542 -1.249501,0.13464 -0.859052,-0.009 -1.122378,-0.0356 -0.842686,-0.0854 z m 0.348697,-0.49198 c 0,-0.0541 0.05231,-0.0984 0.116233,-0.0984 0.06393,0 0.116233,0.0443 0.116233,0.0984 0,0.0541 -0.0523,0.0984 -0.116233,0.0984 -0.06393,0 -0.116233,-0.0443 -0.116233,-0.0984 z m 1.162327,0 c 0,-0.0541 0.0523,-0.0984 0.116232,-0.0984 0.06393,0 0.116233,0.0443 0.116233,0.0984 0,0.0541 -0.05231,0.0984 -0.116233,0.0984 -0.06393,0 -0.116232,-0.0443 -0.116232,-0.0984 z m -1.162327,-0.29518 c 0,-0.0541 0.05231,-0.0984 0.116233,-0.0984 0.06393,0 0.116233,0.0443 0.116233,0.0984 0,0.0541 -0.0523,0.0984 -0.116233,0.0984 -0.06393,0 -0.116233,-0.0443 -0.116233,-0.0984 z m 1.162327,0 c 0,-0.0541 0.0523,-0.0984 0.116232,-0.0984 0.06393,0 0.116233,0.0443 0.116233,0.0984 0,0.0541 -0.05231,0.0984 -0.116233,0.0984 -0.06393,0 -0.116232,-0.0443 -0.116232,-0.0984 z m -0.958919,-0.26999 c 0.745189,-0.0258 0.958919,-0.0652 0.958919,-0.17677 0,-0.079 0.05066,-0.14361 0.112584,-0.14361 0.06192,0 0.08407,0.0629 0.04923,0.13976 -0.04106,0.0906 0.03181,0.15512 0.207055,0.18339 0.148725,0.024 -0.304941,0.0406 -1.008149,0.037 -1.073856,-0.006 -1.125032,-0.0119 -0.319639,-0.0398 z m -0.203408,-0.22198 c 0,-0.0541 0.05539,-0.0984 0.123093,-0.0984 0.0677,0 0.09077,0.0443 0.05126,0.0984 -0.03951,0.0541 -0.0949,0.0984 -0.123092,0.0984 -0.02819,0 -0.05126,-0.0443 -0.05126,-0.0984 z m -3.899807,-3.44382 c 0,-1.81292 0.01569,-2.55457 0.03488,-1.64811 0.01918,0.90646 0.01918,2.38976 0,3.29622 -0.01918,0.90647 -0.03488,0.16482 -0.03488,-1.64811 z m 3.899807,3.14863 c 0,-0.0541 0.05231,-0.0984 0.116233,-0.0984 0.06393,0 0.116233,0.0443 0.116233,0.0984 0,0.0541 -0.0523,0.0984 -0.116233,0.0984 -0.06393,0 -0.116233,-0.0443 -0.116233,-0.0984 z m 1.162327,0 c 0,-0.0541 0.0523,-0.0984 0.116232,-0.0984 0.06393,0 0.116233,0.0443 0.116233,0.0984 0,0.0541 -0.05231,0.0984 -0.116233,0.0984 -0.06393,0 -0.116232,-0.0443 -0.116232,-0.0984 z m -1.162327,-0.29518 c 0,-0.0541 0.05231,-0.0984 0.116233,-0.0984 0.06393,0 0.116233,0.0443 0.116233,0.0984 0,0.0541 -0.0523,0.0984 -0.116233,0.0984 -0.06393,0 -0.116233,-0.0443 -0.116233,-0.0984 z m 1.162327,0 c 0,-0.0541 0.0523,-0.0984 0.116232,-0.0984 0.06393,0 0.116233,0.0443 0.116233,0.0984 0,0.0541 -0.05231,0.0984 -0.116233,0.0984 -0.06393,0 -0.116232,-0.0443 -0.116232,-0.0984 z m -1.162327,-0.29518 c 0,-0.0541 0.05231,-0.0984 0.116233,-0.0984 0.06393,0 0.116233,0.0443 0.116233,0.0984 0,0.0541 -0.0523,0.0984 -0.116233,0.0984 -0.06393,0 -0.116233,-0.0443 -0.116233,-0.0984 z m 1.162327,-0.0452 c 0,-0.11161 -0.21373,-0.151 -0.958919,-0.17676 l -0.95892,-0.0332 0.95892,-0.02 c 0.764369,-0.016 0.958919,-0.05 0.958919,-0.16762 0,-0.0812 0.05066,-0.14759 0.112584,-0.14759 0.06192,0 0.08407,0.0629 0.04923,0.13976 -0.04106,0.0906 0.03181,0.15512 0.207055,0.18339 l 0.27041,0.0436 -0.273959,0.0134 c -0.19256,0.009 -0.25408,0.0573 -0.207055,0.16099 0.0368,0.0812 0.01624,0.14759 -0.04568,0.14759 -0.06192,0 -0.112584,-0.0646 -0.112584,-0.14361 z m -1.162327,-0.44676 c 0,-0.0541 0.05231,-0.0984 0.116233,-0.0984 0.06393,0 0.116233,0.0443 0.116233,0.0984 0,0.0541 -0.0523,0.0984 -0.116233,0.0984 -0.06393,0 -0.116233,-0.0443 -0.116233,-0.0984 z m 0,-0.29518 c 0,-0.0541 0.05231,-0.0984 0.116233,-0.0984 0.06393,0 0.116233,0.0443 0.116233,0.0984 0,0.0541 -0.0523,0.0984 -0.116233,0.0984 -0.06393,0 -0.116233,-0.0443 -0.116233,-0.0984 z m 1.162327,0 c 0,-0.0541 0.0523,-0.0984 0.116232,-0.0984 0.06393,0 0.116233,0.0443 0.116233,0.0984 0,0.0541 -0.05231,0.0984 -0.116233,0.0984 -0.06393,0 -0.116232,-0.0443 -0.116232,-0.0984 z m -1.511024,-0.30683 -0.406815,-0.0608 0.406815,-0.0259 0.406814,-0.0259 -0.406814,-0.0725 c -0.279692,-0.0498 -0.01637,-0.0765 0.842686,-0.0854 1.039979,-0.0108 1.249501,0.0118 1.249501,0.13464 0,0.0812 -0.06538,0.15112 -0.145291,0.15543 -0.72941,0.0393 -1.612742,0.0305 -1.946896,-0.0195 z m -0.348698,-2.64501 v -2.26308 h 0.848498 c 0.519172,0 0.908273,0.0477 1.002506,0.123 0.123207,0.0984 0.164663,0.0984 0.207282,0 0.0293,-0.0676 0.127371,-0.123 0.217936,-0.123 0.137289,0 0.164663,0.37622 0.164663,2.26308 v 2.26308 h -1.220443 -1.220442 z m -2.789583,-2.50906 c 0,-0.12391 0.251837,-0.1476 1.56914,-0.1476 1.317303,0 1.569141,0.0237 1.569141,0.1476 0,0.1239 -0.251838,0.14759 -1.569141,0.14759 -1.317303,0 -1.56914,-0.0237 -1.56914,-0.14759 z m 5.114235,0 c 0,-0.10933 0.135605,-0.1476 0.523047,-0.1476 0.387442,0 0.523047,0.0383 0.523047,0.1476 0,0.10932 -0.135605,0.14759 -0.523047,0.14759 -0.387442,0 -0.523047,-0.0383 -0.523047,-0.14759 z m -2.150303,-0.44278 0.46493,-0.0705 -0.435872,-0.014 c -0.352886,-0.0113 -0.435872,-0.0514 -0.435872,-0.21075 0,-0.18586 0.07749,-0.19679 1.394791,-0.19679 h 1.394791 v 0.29518 0.29518 l -1.423849,-0.014 c -0.972895,-0.01 -1.276599,-0.0363 -0.958919,-0.0844 z m -0.174349,-3.49301 v -2.90264 h 1.220442 1.220443 v 2.90264 2.90264 H 96.087041 94.866599 Z M 93.2684,144.42203 c 0.367586,-0.0195 0.96909,-0.0195 1.336675,0 0.367586,0.0195 0.06683,0.0355 -0.668337,0.0355 -0.735171,0 -1.035923,-0.016 -0.668338,-0.0355 z m 3.719444,0.005 c 0.111874,-0.0247 0.29494,-0.0247 0.406814,0 0.111874,0.0248 0.02034,0.045 -0.203407,0.045 -0.223748,0 -0.315281,-0.0203 -0.203407,-0.045 z m -5.09299,-2.41664 c 0.159694,-5.55541 0.175876,-5.78069 0.41526,-5.78069 0.387436,0 0.364851,-0.18303 -0.02653,-0.21501 -0.250191,-0.0204 -0.392108,-0.0895 -0.417544,-0.20316 -0.03527,-0.15761 0.104939,-0.17219 1.655363,-0.17219 h 1.693896 v 4.32936 4.32936 h -1.693102 -1.693101 z m 5.14082,-0.8278 c -0.04229,-1.71351 -0.07689,-3.66173 -0.07689,-4.32937 v -1.21388 h 0.639279 0.63928 v 4.32936 4.32936 h -0.562391 -0.562391 z m -5.307356,-6.08442 v -0.44278 h 1.743489 1.74349 v 0.44278 0.44277 h -1.74349 -1.743489 z m 5.230468,0 v -0.44278 h 0.639279 0.63928 v 0.44278 0.44277 h -0.63928 -0.639279 z m 5.612414,0 c 8.7e-4,-0.27059 0.0234,-0.36961 0.0502,-0.22004 0.0267,0.14957 0.026,0.37095 -0.002,0.49197 -0.0276,0.12102 -0.0495,-0.001 -0.0486,-0.27193 z"
         id="path5" /><path
         style="fill:#767676;fill-opacity:1"
         d="m 130.34882,170.40274 c 0.11309,-0.0249 0.27,-0.0233 0.34869,0.004 0.0787,0.0269 -0.0138,0.0474 -0.20562,0.0454 -0.19178,-0.002 -0.25616,-0.0241 -0.14307,-0.049 z m -20.95314,-2.54686 v -0.63198 h 2.20841 2.20842 v 0.53147 0.53146 l -1.36573,0.0594 c -0.75115,0.0327 -1.74494,0.0779 -2.20842,0.10052 l -0.84268,0.0411 z m -7.67136,-0.58278 c 0,-0.4067 0.0237,-0.44277 0.29058,-0.44277 0.26691,0 0.29059,0.0361 0.29059,0.44277 0,0.4067 -0.0237,0.44278 -0.29059,0.44278 -0.2669,0 -0.29058,-0.0361 -0.29058,-0.44278 z m 2.09219,0 c 0,-0.11108 0.14068,-0.14759 0.56873,-0.14759 0.39831,0 0.58877,0.0442 0.63563,0.14759 0.0544,0.12011 -0.0515,0.14759 -0.56873,0.14759 -0.48752,0 -0.63563,-0.0344 -0.63563,-0.14759 z m -0.92986,-1.18073 v -0.93475 l 0.23246,0.19679 c 0.16162,0.13681 0.23247,0.32798 0.23247,0.62726 0,0.62639 -0.1223,1.04545 -0.30511,1.04545 -0.12439,0 -0.15982,-0.20723 -0.15982,-0.93475 z m -1.16233,0.0997 c 0,-0.41065 0.0281,-0.45139 0.40268,-0.58388 0.70593,-0.24969 0.67089,-1.03624 -0.0565,-1.26867 l -0.34615,-0.11061 v -1.01157 -1.01157 h 0.52305 0.52305 v 2.21388 2.21388 h -0.52305 -0.52305 z m 1.89138,-0.24731 c 0,-0.24352 0.0227,-0.34315 0.0504,-0.22138 0.0277,0.12176 0.0277,0.32101 0,0.44277 -0.0277,0.12177 -0.0504,0.0221 -0.0504,-0.22139 z m 0.30256,-0.12299 c -0.0141,-0.50281 -0.0135,-0.7012 0.005,-1.67271 l 0.009,-0.46737 h 0.52305 c 0.58962,0 0.57817,-0.0203 0.52716,0.9336 -0.0242,0.45176 -0.0841,0.62041 -0.25689,0.72287 -0.29621,0.17563 -0.23612,0.5475 0.0949,0.58746 0.18276,0.022 0.23324,0.0809 0.18985,0.22138 -0.0472,0.15282 -0.1617,0.19134 -0.5686,0.19134 h -0.50949 z m 2.7191,0.34999 c 0.11309,-0.025 0.27001,-0.0233 0.3487,0.004 0.0787,0.0269 -0.0138,0.0474 -0.20562,0.0454 -0.19178,-0.002 -0.25617,-0.0241 -0.14308,-0.049 z m 12.26033,-0.005 c 1.10276,-0.0162 2.90727,-0.0162 4.01003,0 1.10275,0.0162 0.2005,0.0294 -2.00502,0.0294 -2.20551,0 -3.10777,-0.0132 -2.00501,-0.0294 z m -12.40783,-0.22155 c 0,-0.0541 0.10461,-0.0984 0.23247,-0.0984 0.12785,0 0.23246,0.0443 0.23246,0.0984 0,0.0541 -0.10461,0.0984 -0.23246,0.0984 -0.12786,0 -0.23247,-0.0443 -0.23247,-0.0984 z m -1.79763,-0.19134 c -0.0417,-0.0571 -0.0464,-0.14417 -0.0104,-0.19347 0.099,-0.13563 0.47132,-0.0585 0.47132,0.0977 0,0.16655 -0.35538,0.24042 -0.46095,0.0958 z m 0.40284,-0.0874 c 0,-0.0451 -0.0785,-0.082 -0.17435,-0.082 -0.0959,0 -0.17435,0.0369 -0.17435,0.082 0,0.0451 0.0785,0.082 0.17435,0.082 0.0959,0 0.17435,-0.0369 0.17435,-0.082 z m -3.37075,-0.30106 c 0,-0.0483 0.0785,-0.11335 0.17435,-0.1445 0.23616,-0.0767 0.22037,-0.32642 -0.0281,-0.44412 -0.11134,-0.0528 -0.16114,-0.13087 -0.11066,-0.1736 0.1453,-0.123 0.48349,0.10949 0.52755,0.36265 0.0241,0.13851 -0.0427,0.28169 -0.16751,0.35894 -0.24152,0.14949 -0.39564,0.16533 -0.39564,0.0406 z m 3.83568,-0.15812 c 0,-0.20772 0.0542,-0.24598 0.3487,-0.24598 0.29445,0 0.34869,0.0383 0.34869,0.24598 0,0.20773 -0.0542,0.24599 -0.34869,0.24599 -0.29446,0 -0.3487,-0.0383 -0.3487,-0.24599 z m 1.76615,0 c 0.002,-0.16235 0.0284,-0.21685 0.0579,-0.12112 0.0295,0.0957 0.0275,0.22857 -0.004,0.29519 -0.0318,0.0666 -0.0559,-0.0117 -0.0536,-0.17407 z m 0.53202,0.14372 c 0.14525,-0.0494 0.29469,-0.15727 0.33207,-0.23975 0.0448,-0.0988 0.22231,-0.14995 0.52048,-0.14995 0.40517,0 0.45249,0.0257 0.45249,0.24598 0,0.23871 -0.0232,0.24581 -0.78457,0.23975 -0.59359,-0.005 -0.72028,-0.0281 -0.52047,-0.096 z m 6.2643,0.0367 c -0.14622,-0.12378 -0.0775,-0.42638 0.0969,-0.42638 0.10848,0 0.17435,0.0929 0.17435,0.24598 0,0.23889 -0.11318,0.31417 -0.27121,0.1804 z m -7.51638,-0.089 c 0,-0.0309 0.0785,-0.12264 0.17435,-0.20382 0.15498,-0.13119 0.17435,-0.12494 0.17435,0.0562 0,0.11557 -0.0755,0.20382 -0.17435,0.20382 -0.0959,0 -0.17435,-0.0253 -0.17435,-0.0562 z m -4.88177,-0.23896 c 0,-0.0541 0.0554,-0.0984 0.1231,-0.0984 0.0677,0 0.0908,0.0443 0.0512,0.0984 -0.0395,0.0541 -0.0949,0.0984 -0.12309,0.0984 -0.0282,0 -0.0513,-0.0443 -0.0513,-0.0984 z m 8.68839,-0.0734 c 0.65526,-0.0175 1.72751,-0.0175 2.38277,0 0.65526,0.0175 0.11914,0.0319 -1.19139,0.0319 -1.31052,0 -1.84664,-0.0144 -1.19138,-0.0319 z m -7.52606,-1.04488 c 0,-0.73878 0.0353,-0.94801 0.15982,-0.94801 0.35943,0 0.41577,1.27658 0.0726,1.64586 l -0.23246,0.25017 z m 2.28067,0.5525 c 0.10948,-0.38629 0.16021,-0.39928 0.16021,-0.041 0,0.17137 -0.0533,0.31158 -0.11844,0.31158 -0.0703,0 -0.0873,-0.10995 -0.0418,-0.27059 z m -1.55162,-0.41817 c 0,-0.24353 0.0227,-0.34315 0.0504,-0.22139 0.0277,0.12176 0.0277,0.32101 0,0.44277 -0.0277,0.12177 -0.0504,0.0221 -0.0504,-0.22138 z m 5.89621,-0.29519 v -0.39358 h 2.09218 2.09219 v 0.39358 0.39358 h -2.09219 -2.09218 z m -2.93488,0.0332 c 0.0799,-0.0273 0.21068,-0.0273 0.29059,0 0.0799,0.0273 0.0145,0.0496 -0.14529,0.0496 -0.15982,0 -0.22521,-0.0223 -0.1453,-0.0496 z m 7.26245,-0.32841 c 0,-0.18941 0.0239,-0.2669 0.0532,-0.17219 0.0292,0.0947 0.0292,0.24967 0,0.34438 -0.0292,0.0947 -0.0532,0.0172 -0.0532,-0.17219 z M 105.56,162.99294 v -0.68877 h 0.3487 c 0.34453,0 0.34869,0.006 0.34869,0.53313 0,0.29321 0.0318,0.60316 0.0706,0.68876 0.0563,0.12419 -0.0142,0.15564 -0.3487,0.15564 H 105.56 Z m 1.22044,0.58245 -0.3487,-0.0818 0.3805,0.0282 c 0.42132,0.0312 0.45334,-0.0186 0.53045,-0.824 0.0233,-0.24353 0.0371,-0.13636 0.0306,0.23815 -0.006,0.3745 -0.064,0.69 -0.12797,0.70109 -0.0639,0.0111 -0.27314,-0.0166 -0.46493,-0.0616 z m 7.26454,-0.53326 c 0,-0.5029 0.0373,-0.63956 0.17435,-0.63956 0.13709,0 0.17435,0.13666 0.17435,0.63956 0,0.50291 -0.0373,0.63957 -0.17435,0.63957 -0.1371,0 -0.17435,-0.13666 -0.17435,-0.63957 z m -6.39279,-0.19679 v -0.73796 h 0.63928 0.63927 v 0.73796 0.73796 h -0.63927 -0.63928 z m 1.43463,0 c 4.3e-4,-0.43293 0.0209,-0.5978 0.0454,-0.36638 0.0246,0.23143 0.0242,0.58565 -7.6e-4,0.78716 -0.025,0.20151 -0.0451,0.0122 -0.0446,-0.42078 z m -5.15408,0.39358 c 0,-0.0984 0.11624,-0.14759 0.3487,-0.14759 0.23247,0 0.3487,0.0492 0.3487,0.14759 0,0.0984 -0.11623,0.14759 -0.3487,0.14759 -0.23246,0 -0.3487,-0.0492 -0.3487,-0.14759 z m 0.81363,0.006 c 0,-0.078 0.0523,-0.16915 0.11623,-0.2026 0.0639,-0.0334 0.11624,0.0304 0.11624,0.14179 0,0.11143 -0.0523,0.20259 -0.11624,0.20259 -0.0639,0 -0.11623,-0.0638 -0.11623,-0.14178 z m 0.3487,-0.14759 c 0,-0.15916 0.0523,-0.31674 0.11623,-0.35019 0.0692,-0.0362 0.11623,0.081 0.11623,0.28938 0,0.1926 -0.0523,0.35018 -0.11623,0.35018 -0.0639,0 -0.11623,-0.13022 -0.11623,-0.28937 z m 1.51102,-0.1534 c 0,-0.24052 0.0526,-0.34438 0.17435,-0.34438 0.12177,0 0.17435,0.10386 0.17435,0.34438 0,0.24052 -0.0526,0.34438 -0.17435,0.34438 -0.12177,0 -0.17435,-0.10386 -0.17435,-0.34438 z m 2.69171,0.14759 c 0,-0.13529 0.0264,-0.19064 0.0586,-0.12299 0.0323,0.0676 0.0323,0.17834 0,0.24598 -0.0322,0.0677 -0.0586,0.0123 -0.0586,-0.12299 z m -5.48129,-0.34438 c 0,-0.11369 0.1501,-0.14759 0.65351,-0.14759 0.56772,0 0.63452,0.0194 0.50882,0.14759 -0.0883,0.0901 -0.34303,0.14759 -0.65352,0.14759 -0.37479,0 -0.50881,-0.0389 -0.50881,-0.14759 z m -0.83542,-0.018 c 0.0839,-0.0284 0.18415,-0.0249 0.22278,0.008 0.0386,0.0327 -0.03,0.0559 -0.15256,0.0517 -0.1354,-0.005 -0.16294,-0.028 -0.0702,-0.0594 z m 6.41459,-0.63673 v -0.60555 l 1.48196,0.064 c 0.81508,0.0352 1.80887,0.0642 2.20842,0.0644 l 0.72645,4e-4 v 0.54117 0.54117 h -2.20842 -2.20841 z M 94.379608,161.763 c -0.03873,-0.28087 -0.0089,-0.34438 0.161633,-0.34438 0.161512,0 0.209125,0.0784 0.209125,0.34438 0,0.22848 -0.0544,0.34438 -0.161632,0.34438 -0.09819,0 -0.180275,-0.13517 -0.209126,-0.34438 z m 0.486991,0 c 0,-0.34256 0.0028,-0.34438 0.523047,-0.34438 0.520279,0 0.523046,0.002 0.523046,0.34438 0,0.34256 -0.0028,0.34438 -0.523046,0.34438 -0.52028,0 -0.523047,-0.002 -0.523047,-0.34438 z m 1.162326,0 v -0.34438 h 1.627256 1.627257 v 0.34438 0.34438 h -1.627257 -1.627256 z m 5.695395,-0.14759 c 0,-0.45917 0.0194,-0.49197 0.29058,-0.49197 0.27121,0 0.29059,0.0328 0.29059,0.49197 0,0.45918 -0.0194,0.49197 -0.29059,0.49197 -0.2712,0 -0.29058,-0.0328 -0.29058,-0.49197 z m -8.368745,0.29518 c 0,-0.0541 0.05539,-0.0984 0.123092,-0.0984 0.0677,0 0.09077,0.0443 0.05126,0.0984 -0.03951,0.0541 -0.0949,0.0984 -0.123093,0.0984 -0.02819,0 -0.05126,-0.0443 -0.05126,-0.0984 z m 6.799605,0 c 0.0395,-0.0541 0.12414,-0.0984 0.18807,-0.0984 0.0639,0 0.0839,0.0443 0.0444,0.0984 -0.0395,0.0541 -0.12414,0.0984 -0.18807,0.0984 -0.0639,0 -0.0839,-0.0443 -0.0444,-0.0984 z m 6.42185,-0.0652 c 0.0799,-0.0273 0.21068,-0.0273 0.29059,0 0.0799,0.0273 0.0145,0.0496 -0.14529,0.0496 -0.15982,0 -0.22521,-0.0223 -0.1453,-0.0496 z m 8.04911,-0.0332 c 0,-0.0541 0.28768,-0.0984 0.63928,-0.0984 0.35161,0 0.63928,0.0443 0.63928,0.0984 0,0.0541 -0.28767,0.0984 -0.63928,0.0984 -0.3516,0 -0.63928,-0.0443 -0.63928,-0.0984 z M 94.082029,161.154 c 0.111874,-0.0248 0.29494,-0.0248 0.406814,0 0.111874,0.0248 0.02034,0.045 -0.203407,0.045 -0.223748,0 -0.315281,-0.0202 -0.203407,-0.045 z m 3.197752,-0.002 c 0.144583,-0.0235 0.353802,-0.0226 0.46493,0.002 0.111129,0.0246 -0.0072,0.0439 -0.262878,0.0428 -0.255712,-0.001 -0.346636,-0.0212 -0.202052,-0.0448 z m 28.247069,-0.10146 c 0.33776,-0.0199 0.86081,-0.0197 1.16232,4.7e-4 0.30152,0.0202 0.0252,0.0365 -0.61411,0.0362 -0.63928,-2.6e-4 -0.88598,-0.0168 -0.54821,-0.0367 z m -33.943823,-0.0989 c 0.527406,-0.0182 1.390433,-0.0182 1.917839,0 0.527405,0.0182 0.09589,0.0332 -0.958919,0.0332 -1.054811,0 -1.486325,-0.0149 -0.95892,-0.0332 z m 6.338185,7.6e-4 c 0.305587,-0.0203 0.776329,-0.0201 1.046093,5.4e-4 0.269765,0.0206 0.01974,0.0373 -0.555612,0.037 -0.575351,-3e-4 -0.796068,-0.0172 -0.490481,-0.0375 z m -6.338185,-0.19755 c 0.527406,-0.0182 1.390433,-0.0182 1.917839,0 0.527405,0.0182 0.09589,0.0331 -0.958919,0.0331 -1.054811,0 -1.486325,-0.0149 -0.95892,-0.0331 z m 6.334678,8.8e-4 c 0.303658,-0.0203 0.800552,-0.0203 1.10421,0 0.303657,0.0203 0.05521,0.0368 -0.552105,0.0368 -0.607316,0 -0.855763,-0.0166 -0.552105,-0.0368 z m -6.073154,-4.60142 v -4.47696 h 1.511024 1.511024 v 2.26308 2.26308 h -0.383568 c -0.210962,0 -0.446333,0.0531 -0.523047,0.11807 -0.194875,0.16497 -0.189818,1.71783 0.0058,1.78465 0.116233,0.0397 0.116233,0.0512 0,0.0574 -0.197182,0.0105 -0.202409,1.59277 -0.0058,1.75919 0.07671,0.0649 0.312085,0.11808 0.523047,0.11808 0.348698,0 0.383568,0.0268 0.383568,0.29518 v 0.29518 h -1.511024 -1.511024 z m 5.462933,4.18177 v -0.29518 h 0.813628 0.813628 v 0.29518 0.29518 h -0.813628 -0.813628 z m -3.293258,-0.45917 c -0.04262,-0.0361 -0.07749,-0.41244 -0.07749,-0.83636 0,-0.60549 0.03591,-0.77076 0.167489,-0.77076 0.281157,0 0.337374,-0.20637 0.07221,-0.26507 -0.231944,-0.0513 -0.246374,-0.10866 -0.215102,-0.85433 l 0.03352,-0.79929 0.464931,-0.0258 c 0.370412,-0.0206 0.423578,-0.005 0.261523,0.0787 -0.180436,0.0927 -0.203407,0.28673 -0.203407,1.71822 0,1.43309 0.02277,1.62496 0.203407,1.71403 0.165708,0.0817 0.126213,0.10084 -0.213093,0.10328 -0.229075,0.002 -0.45137,-0.0265 -0.493989,-0.0626 z m 3.293258,-0.082 c 0,-0.0918 0.109775,-0.14759 0.290581,-0.14759 0.260706,0 0.290582,-0.0398 0.290582,-0.38705 0,-0.34669 -0.03332,-0.39131 -0.31964,-0.42803 l -0.31964,-0.041 0.302782,-0.0147 c 0.290715,-0.0142 0.303602,-0.04 0.323345,-0.64747 0.0202,-0.62161 0.01488,-0.63345 -0.302782,-0.67402 l -0.323345,-0.0413 0.31964,-0.0147 c 0.292522,-0.0135 0.31964,-0.0481 0.31964,-0.40832 0,-0.35422 -0.02906,-0.39358 -0.290582,-0.39358 -0.180806,0 -0.290581,-0.0558 -0.290581,-0.14759 0,-0.11898 0.163361,-0.14472 0.842686,-0.13281 0.771752,0.0135 0.798658,0.0206 0.31964,0.0836 l -0.523047,0.0688 0.523047,0.0287 0.523047,0.0287 -0.453549,0.0598 c -0.425828,0.0562 -0.455269,0.0821 -0.481692,0.42366 -0.02781,0.35959 -0.02253,0.36427 0.453548,0.40099 l 0.481693,0.0372 -0.467566,0.0172 -0.467565,0.0172 -0.0053,0.63478 -0.0053,0.63478 0.47286,0.0368 0.47286,0.0368 -0.482099,0.0172 c -0.481513,0.0172 -0.482064,0.0176 -0.453548,0.38617 0.02689,0.34751 0.05494,0.37246 0.482098,0.42881 l 0.453549,0.0598 -0.523047,0.0287 -0.523047,0.0287 0.523047,0.0688 c 0.479018,0.063 0.452112,0.0701 -0.31964,0.0836 -0.679325,0.0119 -0.842686,-0.0138 -0.842686,-0.13281 z m 0,-5.85448 v -2.26308 h 0.871744 0.871745 l -6.97e-4,1.45132 c -3.83e-4,0.79823 -0.03429,1.81661 -0.07534,2.26308 l -0.07465,0.81176 h -0.796401 -0.7964 z m -5.579166,-2.50906 c 0,-0.0812 0.07846,-0.1476 0.174349,-0.1476 0.09589,0 0.174349,0.0664 0.174349,0.1476 0,0.0812 -0.07846,0.14759 -0.174349,0.14759 -0.09589,0 -0.174349,-0.0664 -0.174349,-0.14759 z m 6.509027,0 c 0,-0.12264 0.226007,-0.1476 1.336675,-0.1476 1.11067,0 1.33667,0.025 1.33667,0.1476 0,0.12263 -0.226,0.14759 -1.33667,0.14759 -1.110668,0 -1.336675,-0.025 -1.336675,-0.14759 z m -6.247503,-0.41752 c 0.495441,-0.0185 1.306164,-0.0185 1.801605,0 0.495442,0.0184 0.09008,0.0335 -0.900803,0.0335 -0.990883,0 -1.396244,-0.0151 -0.900802,-0.0335 z m 5.433874,-0.22205 v -0.29518 h 0.929861 c 0.852373,0 0.929861,0.0164 0.929861,0.19679 0,0.16976 -0.0838,0.19899 -0.610221,0.21282 l -0.610221,0.016 0.639279,0.0663 c 0.615618,0.0639 0.603788,0.0669 -0.31964,0.0824 l -0.958919,0.016 z m -5.172351,0.006 c 1.371082,-0.0646 1.341341,-0.17017 -0.05511,-0.19565 -1.668557,-0.0305 -1.189174,-0.10507 0.675012,-0.10507 1.685373,0 1.762862,0.009 1.762862,0.19679 0,0.18902 -0.06999,0.19603 -1.772548,0.17773 -1.683005,-0.0181 -1.713831,-0.0218 -0.610221,-0.0738 z m 10.304935,-0.10393 c 0,-0.1353 0.0264,-0.19064 0.0586,-0.123 0.0322,0.0677 0.0322,0.17834 0,0.24599 -0.0322,0.0677 -0.0586,0.0123 -0.0586,-0.12299 z m -11.292912,-3.19783 v -2.90264 h 1.801605 1.801606 v 2.90264 2.90264 h -1.801606 -1.801605 z m 6.044096,0 v -2.90264 h 0.813628 0.813628 v 2.90264 2.90264 h -0.813628 -0.813628 z m -5.953849,-3.07321 c 0.273383,-0.0208 0.691821,-0.0205 0.929861,6.5e-4 0.23804,0.0211 0.01436,0.0382 -0.497061,0.0378 -0.511424,-3.5e-4 -0.706184,-0.0176 -0.4328,-0.0384 z m 6.622186,1.3e-4 c 0.271694,-0.0207 0.716284,-0.0207 0.987977,0 0.271694,0.0207 0.0494,0.0377 -0.493988,0.0377 -0.543388,0 -0.765683,-0.017 -0.493989,-0.0377 z m -6.828666,-1.49344 c 0,-1.31643 0.01331,-1.3925 0.348606,-1.99249 l 0.348606,-0.6238 9.2e-5,1.99249 9.2e-5,1.99249 h -0.348698 -0.348698 z m 7.09019,-2.96067 v -4.32936 h 1.394791 1.394794 v 4.32936 4.32936 h -1.394794 -1.394791 z m -6.276562,-0.59037 c 0,-0.0606 -0.581163,-0.0984 -1.511023,-0.0984 -0.929861,0 -1.511024,-0.0378 -1.511024,-0.0984 0,-0.0607 0.600535,-0.0984 1.56914,-0.0984 1.491652,0 1.56914,0.01 1.56914,0.19679 0,0.10823 -0.02615,0.19679 -0.05812,0.19679 -0.03196,0 -0.05812,-0.0443 -0.05812,-0.0984 z m -56.95398,-0.14759 c 0,-0.13077 3.060792,-0.14759 26.849734,-0.14759 14.767353,0 26.849733,0.037 26.849733,0.0823 0,0.14298 -10.645491,0.21263 -32.516073,0.21274 -18.752253,1e-4 -21.183394,-0.0168 -21.183394,-0.14748 z m 0,-1.57431 v -1.32833 H 61.856537 88.70627 v 1.32833 1.32832 H 61.856537 35.006803 Z m 53.931933,0 v -1.32833 h 1.56914 1.56914 v 1.32833 1.32832 h -1.56914 -1.56914 z m 2.208419,-1.8695 c 0,-0.0984 0.116233,-0.14759 0.348698,-0.14759 0.232465,0 0.348698,0.0492 0.348698,0.14759 0,0.0984 -0.116233,0.14759 -0.348698,0.14759 -0.232465,0 -0.348698,-0.0492 -0.348698,-0.14759 z m -0.116232,-0.68876 c 0,-0.42638 0.01291,-0.44278 0.348697,-0.44278 0.335784,0 0.348698,0.0164 0.348698,0.44278 0,0.42637 -0.01291,0.44277 -0.348698,0.44277 -0.335783,0 -0.348697,-0.0164 -0.348697,-0.44277 z m 7.206422,0 v -0.44278 h 1.452907 1.452908 v 0.44278 0.44277 h -1.452908 -1.452907 z"
         id="path4" /><path
         style="fill:#606060;fill-opacity:1"
         d="m 92.575839,172.16897 c 0.434172,-0.019 1.114133,-0.0188 1.511024,3.2e-4 0.396891,0.0192 0.04166,0.0347 -0.789404,0.0345 -0.831064,-1.7e-4 -1.155793,-0.0158 -0.72162,-0.0348 z m 0,-1.7711 c 0.434172,-0.019 1.114133,-0.0188 1.511024,3.1e-4 0.396891,0.0192 0.04166,0.0347 -0.789404,0.0345 -0.831064,-1.7e-4 -1.155793,-0.0159 -0.72162,-0.0348 z m 13.914021,-2.38681 c 0,-0.0541 0.10461,-0.0984 0.23247,-0.0984 0.12785,0 0.23246,0.0443 0.23246,0.0984 0,0.0541 -0.10461,0.0984 -0.23246,0.0984 -0.12786,0 -0.23247,-0.0443 -0.23247,-0.0984 z m -4.06814,-0.73796 c 0,-0.32798 0.0452,-0.44277 0.17435,-0.44277 0.12914,0 0.17435,0.11479 0.17435,0.44277 0,0.32798 -0.0452,0.44278 -0.17435,0.44278 -0.12915,0 -0.17435,-0.1148 -0.17435,-0.44278 z m -9.182378,-0.0328 c 0,-0.0451 0.07616,-0.082 0.169236,-0.082 0.09308,0 0.142298,0.0369 0.109373,0.082 -0.03292,0.0451 -0.109081,0.082 -0.169236,0.082 -0.06015,0 -0.109373,-0.0369 -0.109373,-0.082 z m 9.741748,-0.0836 c 0.0839,-0.0284 0.18415,-0.0249 0.22278,0.008 0.0386,0.0327 -0.03,0.0559 -0.15256,0.0517 -0.1354,-0.005 -0.16294,-0.028 -0.0702,-0.0594 z m 2.17572,-0.35521 c -0.0497,-0.097 -0.0578,-0.20404 -0.018,-0.23778 0.11803,-0.0999 0.21318,0.0404 0.15885,0.23433 -0.0482,0.17189 -0.0544,0.17204 -0.14087,0.003 z m 2.49538,-0.65992 v -0.68876 h 0.75551 0.75551 l -0.019,0.71336 -0.0189,0.71336 -0.0783,-0.54117 -0.0783,-0.54117 -0.0189,0.51657 -0.019,0.51658 h -0.63927 -0.63928 z m -2.09219,-0.0492 v -0.63957 h 0.33699 c 0.31787,0 0.33969,0.0265 0.38451,0.46738 0.0689,0.67787 0.005,0.81175 -0.38636,0.81175 -0.33499,0 -0.33514,-2.8e-4 -0.33514,-0.63956 z m 1.69672,0.46737 c -0.0343,-0.0947 -0.0179,-0.39358 0.0366,-0.66416 l 0.0991,-0.49198 0.0137,0.66417 c 0.0137,0.6645 -0.0321,0.8153 -0.14933,0.49197 z m 10.79828,0.0691 c 1.84553,-0.11212 6.79961,-0.10872 6.79961,0.005 0,0.064 -1.3917,0.0927 -3.98096,0.0822 -2.76499,-0.0113 -3.62594,-0.0378 -2.81865,-0.0868 z m -4.01002,-0.63181 c 0,-0.52533 0.0305,-0.62659 0.17435,-0.57984 0.12768,0.0415 0.17435,0.21183 0.17435,0.63648 0,0.44981 -0.0391,0.57984 -0.17435,0.57984 -0.13701,0 -0.17435,-0.13632 -0.17435,-0.63648 z m -0.19763,-0.24907 c 0,-0.29765 0.0218,-0.41941 0.0484,-0.27059 0.0266,0.14882 0.0266,0.39235 0,0.54117 -0.0266,0.14882 -0.0484,0.0271 -0.0484,-0.27058 z m -4.33544,-0.0984 v -0.39358 h 2.09218 2.09219 v 0.39358 0.39358 h -2.09219 -2.09218 z M 109.3021,165.502 c 0.002,-0.16235 0.0284,-0.21686 0.0579,-0.12112 0.0295,0.0957 0.0275,0.22857 -0.004,0.29518 -0.0318,0.0666 -0.056,-0.0117 -0.0536,-0.17406 z m -2.69601,0 c 0,-0.0812 0.0785,-0.14759 0.17435,-0.14759 0.0959,0 0.17435,0.0664 0.17435,0.14759 0,0.0812 -0.0785,0.14759 -0.17435,0.14759 -0.0959,0 -0.17435,-0.0664 -0.17435,-0.14759 z m -4.22085,-0.32245 c 0.0482,-0.23288 0.008,-0.37756 -0.14525,-0.52081 -0.18907,-0.17686 -0.1906,-0.19139 -0.0142,-0.13407 0.2585,0.084 0.374,0.49 0.21683,0.76221 -0.10718,0.18562 -0.11506,0.1709 -0.0574,-0.10733 z m 2.78732,0.20766 c -0.12245,-0.10366 -0.0902,-0.62317 0.0387,-0.62317 0.0639,0 0.11623,0.15497 0.11623,0.34438 0,0.3539 -0.0212,0.39203 -0.15497,0.27879 z m -13.047094,-2.24668 c 1.11e-4,-1.02823 0.01734,-1.43549 0.03827,-0.90504 0.02094,0.53045 0.02085,1.37172 -2.04e-4,1.8695 -0.02105,0.49777 -0.03818,0.0638 -0.03807,-0.96446 z m 4.646715,0.49197 c 1.81e-4,-0.75764 0.01843,-1.05457 0.04055,-0.65986 0.02212,0.39472 0.02197,1.0146 -3.3e-4,1.37753 -0.0223,0.36292 -0.0404,0.04 -0.04022,-0.71767 z m 4.768129,-0.49197 c 1.1e-4,-1.02823 0.0173,-1.43549 0.0383,-0.90504 0.0209,0.53045 0.0208,1.37172 -2e-4,1.8695 -0.0211,0.49777 -0.0382,0.0638 -0.0381,-0.96446 z m 7.77898,0.88555 c 4.2e-4,-0.43294 0.0209,-0.59781 0.0454,-0.36638 0.0246,0.23143 0.0242,0.58565 -7.7e-4,0.78716 -0.025,0.20151 -0.0451,0.0122 -0.0446,-0.42078 z m -2.74226,-0.11436 c 0.0799,-0.0273 0.21068,-0.0273 0.29059,0 0.0799,0.0273 0.0145,0.0496 -0.14529,0.0496 -0.15982,0 -0.22521,-0.0223 -0.1453,-0.0496 z m -4.15531,-2.29631 c 0,-0.37171 0.0426,-0.49197 0.17435,-0.49197 0.13173,0 0.17435,0.12026 0.17435,0.49197 0,0.37171 -0.0426,0.49197 -0.17435,0.49197 -0.13173,0 -0.17435,-0.12026 -0.17435,-0.49197 z m 12.52614,0.32227 c 0.20891,-0.0219 0.52274,-0.0214 0.6974,0.001 0.17466,0.0224 0.004,0.0404 -0.37984,0.0398 -0.38357,-5.5e-4 -0.52647,-0.0189 -0.31756,-0.0408 z m -14.85079,-0.12548 c 0,-0.0541 0.0554,-0.0984 0.12309,-0.0984 0.0677,0 0.0908,0.0443 0.0513,0.0984 -0.0395,0.0541 -0.0949,0.0984 -0.1231,0.0984 -0.0282,0 -0.0512,-0.0443 -0.0512,-0.0984 z m 24.87378,-0.59037 c 0,-0.0587 0.44555,-0.0984 1.10421,-0.0984 0.65865,0 1.10421,0.0397 1.10421,0.0984 0,0.0587 -0.44556,0.0984 -1.10421,0.0984 -0.65866,0 -1.10421,-0.0397 -1.10421,-0.0984 z m -26.877441,-0.0696 c 0.144583,-0.0235 0.353802,-0.0226 0.46493,0.002 0.111129,0.0246 -0.0072,0.0439 -0.262878,0.0428 -0.255712,-0.001 -0.346635,-0.0212 -0.202052,-0.0448 z m 2.090831,-0.20026 c 0.46348,-0.0187 1.2219,-0.0187 1.68537,0 0.46348,0.0187 0.0843,0.034 -0.84268,0.034 -0.92696,0 -1.306167,-0.0153 -0.84269,-0.034 z m 25.34261,4.1e-4 c 0.33776,-0.0199 0.86081,-0.0197 1.16232,4.6e-4 0.30152,0.0202 0.0252,0.0365 -0.61411,0.0363 -0.63928,-2.6e-4 -0.88598,-0.0168 -0.54821,-0.0367 z m -25.28958,-0.197 c 0.42872,-0.0189 1.16098,-0.019 1.62726,-2.8e-4 0.46627,0.0187 0.1155,0.0342 -0.77949,0.0343 -0.89499,1.5e-4 -1.276485,-0.0152 -0.84777,-0.034 z m 25.28958,2.1e-4 c 0.33776,-0.0199 0.86081,-0.0197 1.16232,4.6e-4 0.30152,0.0202 0.0252,0.0365 -0.61411,0.0363 -0.63928,-2.6e-4 -0.88598,-0.0168 -0.54821,-0.0367 z M 91.781892,156.1545 c 2.4e-5,-2.48939 0.01511,-3.49366 0.03351,-2.23173 0.01841,1.26193 0.01839,3.2987 -4.4e-5,4.52615 -0.01843,1.22745 -0.03349,0.19496 -0.03347,-2.29442 z m 7.152848,4.18177 c 0,-0.2577 0.04133,-0.29518 0.325452,-0.29518 0.178998,0 0.388216,-0.0531 0.46493,-0.11808 0.194876,-0.16497 0.189819,-1.71783 -0.0058,-1.78465 -0.116232,-0.0397 -0.116232,-0.0512 0,-0.0574 0.197182,-0.0105 0.202409,-1.59276 0.0058,-1.75919 -0.07671,-0.0649 -0.293685,-0.11807 -0.482158,-0.11807 h -0.342679 l 0.07465,-0.81176 c 0.04106,-0.44647 0.07496,-1.46485 0.07534,-2.26308 l 6.97e-4,-1.45132 h 1.278558 1.27856 v 4.47696 4.47695 h -1.33667 -1.336681 z m 0.03874,-0.53183 c 0,-0.0815 0.04359,-0.12547 0.09686,-0.0976 0.05327,0.0279 0.09686,-0.68513 0.09686,-1.58445 0,-0.89932 -0.04359,-1.61232 -0.09686,-1.58445 -0.05327,0.0279 -0.09686,-0.0161 -0.09686,-0.0976 0,-0.10644 0.101102,-0.13992 0.358384,-0.11866 l 0.358384,0.0296 0.03352,0.79929 c 0.03127,0.74567 0.01684,0.80298 -0.215102,0.85433 -0.267561,0.0592 -0.207837,0.26507 0.07691,0.26507 0.140912,0 0.166058,0.14746 0.138431,0.81176 l -0.03376,0.81175 -0.358384,0.0296 c -0.257282,0.0213 -0.358384,-0.0122 -0.358384,-0.11866 z m -3.896214,-0.0274 c 0.08391,-0.0284 0.184156,-0.0249 0.22278,0.008 0.03862,0.0327 -0.03003,0.0559 -0.152556,0.0517 -0.135404,-0.005 -0.162946,-0.028 -0.07022,-0.0595 z m 0,-3.34542 c 0.08391,-0.0284 0.184156,-0.0249 0.22278,0.008 0.03862,0.0327 -0.03003,0.0559 -0.152556,0.0517 -0.135404,-0.005 -0.162946,-0.028 -0.07022,-0.0594 z m 3.254514,0 c 0.08391,-0.0284 0.184156,-0.0249 0.222779,0.008 0.03862,0.0327 -0.03003,0.0559 -0.152556,0.0517 -0.135404,-0.005 -0.162946,-0.028 -0.07022,-0.0594 z m 2.57891,-5.0001 c 0,-0.10933 0.13561,-0.1476 0.52305,-0.1476 0.38744,0 0.52305,0.0383 0.52305,0.1476 0,0.10932 -0.13561,0.14759 -0.52305,0.14759 -0.38744,0 -0.52305,-0.0383 -0.52305,-0.14759 z m -0.89596,-0.41744 c 0.43417,-0.019 1.11413,-0.0188 1.51102,3.1e-4 0.39689,0.0191 0.0417,0.0347 -0.7894,0.0345 -0.831071,-1.7e-4 -1.1558,-0.0158 -0.72162,-0.0348 z m -1.746119,-0.0935 c 0.11309,-0.0249 0.270004,-0.0233 0.348698,0.004 0.07869,0.0269 -0.01384,0.0474 -0.20562,0.0454 -0.191783,-0.002 -0.256169,-0.0241 -0.143078,-0.049 z m 1.014823,-0.22699 c 0,-0.18743 0.0705,-0.19595 1.481966,-0.17906 0.81509,0.01 1.22045,0.032 0.90081,0.0493 -0.31964,0.0174 -0.76423,0.0641 -0.98798,0.10377 -0.33517,0.0595 -0.23283,0.0822 0.58116,0.12913 0.9488,0.0547 0.92921,0.0577 -0.49399,0.0753 -1.411696,0.0175 -1.481966,0.009 -1.481966,-0.17845 z m -7.438887,-0.0173 c 0,-0.11272 1.382539,-0.0791 1.466322,0.0356 0.03498,0.0479 -0.280635,0.0791 -0.701363,0.0693 -0.420727,-0.01 -0.764959,-0.057 -0.764959,-0.10492 z m -0.645898,-3.18057 c -5.2e-5,-1.62351 0.01587,-2.30148 0.03539,-1.5066 0.01951,0.79488 0.01956,2.12321 9.5e-5,2.95184 -0.01946,0.82863 -0.03543,0.17827 -0.03548,-1.44524 z m 7.736087,0 v -2.90264 h 1.569144 1.56914 v 2.90264 2.90264 h -1.56914 -1.569144 z m 1.075154,-3.07375 c 0.36759,-0.0195 0.96909,-0.0195 1.33668,0 0.36758,0.0195 0.0668,0.0355 -0.66834,0.0355 -0.735176,0 -1.035928,-0.016 -0.66834,-0.0355 z m 1.01704,-4.45344 v -4.32936 h 0.75551 0.75551 v 4.32936 4.32936 h -0.75551 -0.75551 z M 35.006803,139.7718 v -0.39358 l 21.183394,-1.1e-4 c 11.650866,-6e-5 23.733247,-0.0294 26.849733,-0.0653 l 5.66634,-0.0652 v 0.45885 0.45884 H 61.856537 35.006803 Z m 53.931933,-0.0492 v -0.44277 h 1.481965 1.481966 v 0.28579 c 0,0.15718 -0.03923,0.26526 -0.08717,0.24018 -0.04795,-0.0251 -0.08718,0.0456 -0.08718,0.15698 0,0.19328 -0.06416,0.2026 -1.394791,0.2026 h -1.394791 z m 12.204424,-4.62454 v -0.44278 h 0.6974 0.69739 v 0.44278 0.44277 h -0.69739 -0.6974 z"
         id="path3" /><path
         style="fill:#494949;fill-opacity:1"
         d="m 94.866599,171.35648 v -0.78716 h 3.013197 3.013194 l 0.0379,0.78739 0.0379,0.78739 -3.051105,-2.3e-4 -3.051106,-2.3e-4 z m 10.672601,0.0163 0.0373,-0.77136 6.52983,-0.0651 c 3.59141,-0.0358 9.10583,-0.0652 12.25428,-0.0652 l 5.72446,-9e-5 v 0.83635 0.83636 l -3.10922,2.3e-4 -3.10922,2.3e-4 0.0379,-0.78739 0.0379,-0.78739 h -2.34235 -2.34235 l 0.0379,0.78739 0.0379,0.78739 h -6.91584 -6.91584 z m 0.11607,-0.97554 c 1.61863,-0.0154 4.23387,-0.0154 5.81163,3e-5 1.57776,0.0154 0.25343,0.0281 -2.94297,0.0281 -3.1964,-2e-5 -4.48729,-0.0127 -2.86866,-0.0281 z m -13.810719,-0.59879 v -0.47573 l 12.223669,-0.0654 c 6.72302,-0.036 15.74558,-0.0654 20.05013,-0.0654 h 7.82645 v 0.54117 0.54117 H 111.89468 91.844551 Z m 0.05233,-4.00123 c 3.9e-5,-1.89409 0.01565,-2.65503 0.0347,-1.69096 0.01905,0.96407 0.01901,2.51379 -7.3e-5,3.44381 -0.01909,0.93003 -0.03467,0.14125 -0.03463,-1.75285 z m 0.229338,1.37753 c 9.5e-5,-1.13646 0.01702,-1.5879 0.0376,-1.0032 0.02058,0.5847 0.02051,1.51453 -1.72e-4,2.06629 -0.02068,0.55176 -0.03752,0.0734 -0.03743,-1.06309 z m 0.415732,-1.9679 v -3.98498 l 0.668337,0.002 c 0.82911,0.002 0.972803,0.0767 1.064152,0.55401 l 0.07257,0.37923 1.131539,0.0282 1.131539,0.0282 0.01498,2.43171 c 0.0082,1.33744 0.02196,2.90769 0.03049,3.48945 l 0.01551,1.05774 h -2.06456 -2.064559 z m 1.212277,2.14722 c 0.04233,-0.0934 -0.0027,-0.23073 -0.103797,-0.31627 -0.160671,-0.13601 -0.197736,-0.13503 -0.368863,0.01 -0.104633,0.0886 -0.15858,0.2309 -0.11988,0.31627 0.09322,0.20565 0.497905,0.19893 0.59254,-0.01 z m -0.04511,-5.39918 c 0.122865,-0.12532 0.118718,-0.17862 -0.02325,-0.2988 -0.210626,-0.1783 -0.562756,-0.0843 -0.562756,0.15028 0,0.3252 0.330638,0.409 0.586004,0.14852 z m 3.249672,3.74738 v -3.48957 l 1.191384,-0.028 1.191384,-0.028 0.03856,-0.34399 c 0.05759,-0.5138 0.190686,-0.59076 1.021772,-0.59076 h 0.74128 v 3.98498 3.98499 h -2.092188 -2.092187 z m 3.56463,1.66164 c 0.0387,-0.0854 -0.0152,-0.2277 -0.11988,-0.31627 -0.17617,-0.14913 -0.20432,-0.14913 -0.38048,0 -0.237636,0.20116 -0.128562,0.47149 0.19024,0.47149 0.13187,0 0.27142,-0.0699 0.31012,-0.15522 z m 0,-5.41171 c 0.0387,-0.0854 -0.0152,-0.22769 -0.11988,-0.31627 -0.17112,-0.14486 -0.20819,-0.14585 -0.36886,-0.01 -0.101047,0.0856 -0.146123,0.22289 -0.103794,0.31627 0.09464,0.20877 0.499314,0.21549 0.592534,0.01 z m 1.01764,5.22255 c 9e-5,-1.13646 0.017,-1.5879 0.0376,-1.0032 0.0206,0.5847 0.0205,1.51453 -1.8e-4,2.06629 -0.0207,0.55176 -0.0375,0.0734 -0.0374,-1.06309 z m 6.11113,0.44277 v -0.78715 h 0.63928 0.63927 v 0.78715 0.78716 h -0.63927 -0.63928 z m 1.4354,0 c 0,-0.45999 0.02,-0.64817 0.0445,-0.41817 0.0245,0.22999 0.0245,0.60635 0,0.83635 -0.0245,0.23 -0.0445,0.0418 -0.0445,-0.41818 z m 5.97443,0.71512 c 0.27169,-0.0207 0.71628,-0.0207 0.98797,0 0.2717,0.0207 0.0494,0.0377 -0.49399,0.0377 -0.54338,0 -0.76568,-0.017 -0.49398,-0.0377 z M 105.56,167.46989 v -0.73796 h 0.3487 0.34869 v 0.73796 0.73796 H 105.9087 105.56 Z m 1.07736,0.66977 c 0.11309,-0.0249 0.27001,-0.0233 0.3487,0.004 0.0787,0.0269 -0.0138,0.0474 -0.20562,0.0454 -0.19178,-0.002 -0.25617,-0.0241 -0.14308,-0.049 z m 0.64122,-0.44832 c 0.0598,-0.9303 0.106,-1.02217 0.12373,-0.24605 0.01,0.41941 -0.0218,0.76259 -0.0698,0.76262 -0.048,4e-5 -0.0722,-0.23242 -0.054,-0.51657 z m 6.7664,-0.31984 c 0,-0.59037 0.0349,-0.73796 0.17435,-0.73796 0.13948,0 0.17435,0.14759 0.17435,0.73796 0,0.59036 -0.0349,0.73796 -0.17435,0.73796 -0.13948,0 -0.17435,-0.1476 -0.17435,-0.73796 z m -7.43889,-0.19679 c 0,-0.32798 0.0452,-0.44278 0.17435,-0.44278 0.12915,0 0.17435,0.1148 0.17435,0.44278 0,0.32798 -0.0452,0.44277 -0.17435,0.44277 -0.12915,0 -0.17435,-0.11479 -0.17435,-0.44277 z m -3.625,0.0804 c 0.0839,-0.0284 0.18415,-0.0249 0.22278,0.008 0.0386,0.0327 -0.03,0.056 -0.15256,0.0517 -0.1354,-0.005 -0.16294,-0.028 -0.0702,-0.0594 z m 2.19873,-0.0906 c -0.0466,-0.0395 -0.0847,-0.13964 -0.0847,-0.22262 0,-0.11075 0.0344,-0.12176 0.12931,-0.0414 0.0711,0.0602 0.10926,0.16039 0.0847,0.22262 -0.0245,0.0622 -0.0827,0.0809 -0.12931,0.0414 z m 11.88721,-0.0698 c -0.23168,-0.0931 0.51996,-0.122 3.70821,-0.14266 2.19933,-0.0143 4.02848,-7.7e-4 4.06477,0.0299 0.22,0.18624 -0.64478,0.23845 -3.87919,0.2342 -2.5286,-0.003 -3.68987,-0.0395 -3.89379,-0.12149 z m -13.13429,-0.36274 c 0,-0.15306 0.0775,-0.19679 0.3487,-0.19679 0.27121,0 0.3487,0.0437 0.3487,0.19679 0,0.15306 -0.0775,0.19679 -0.3487,0.19679 -0.27121,0 -0.3487,-0.0437 -0.3487,-0.19679 z m 0.81363,0 c 0,-0.10823 0.0523,-0.19679 0.11623,-0.19679 0.0639,0 0.11624,0.0886 0.11624,0.19679 0,0.10824 -0.0523,0.19679 -0.11624,0.19679 -0.0639,0 -0.11623,-0.0885 -0.11623,-0.19679 z m 4.76554,-0.24598 v -0.44278 h 2.09218 c 2.09166,0 2.09219,6e-5 2.09397,0.22139 0.001,0.17902 0.0233,0.19314 0.11445,0.0738 0.0824,-0.10799 0.11005,-0.042 0.10287,0.24599 -0.009,0.34144 -0.0221,0.36099 -0.10287,0.14759 -0.0893,-0.23599 -0.0935,-0.23699 -0.10464,-0.0246 -0.0116,0.22103 -0.015,0.22139 -2.10378,0.22139 h -2.09218 z m -12.744332,-0.49198 c -3.54e-4,-0.48705 0.0193,-0.69871 0.04368,-0.47034 0.02438,0.22836 0.02467,0.62686 6.44e-4,0.88555 -0.02402,0.25869 -0.04397,0.0719 -0.04432,-0.41521 z m 12.547882,0.29519 c 6.5e-4,-0.32471 0.0224,-0.44568 0.0482,-0.26883 0.0259,0.17685 0.0253,0.44252 -10e-4,0.59037 -0.0265,0.14785 -0.0477,0.003 -0.047,-0.32154 z m 8.01309,0.27205 c 0.30366,-0.0203 0.80055,-0.0203 1.10421,0 0.30366,0.0203 0.0552,0.0369 -0.5521,0.0369 -0.60732,0 -0.85577,-0.0166 -0.55211,-0.0369 z m -10.69119,-0.0942 c 0.11309,-0.0249 0.27001,-0.0233 0.3487,0.004 0.0787,0.0269 -0.0138,0.0474 -0.20562,0.0454 -0.19178,-0.002 -0.25617,-0.0241 -0.14308,-0.049 z m 12.26033,-0.79261 c 1.10276,-0.0162 2.90727,-0.0162 4.01003,0 1.10275,0.0162 0.2005,0.0294 -2.00502,0.0294 -2.20551,0 -3.10777,-0.0132 -2.00501,-0.0294 z m -16.9409,-0.16182 c 0,-0.0213 0.0812,-0.065 0.18038,-0.0973 0.10344,-0.0336 0.1501,-0.0171 0.10938,0.0387 -0.0683,0.0935 -0.28976,0.13829 -0.28976,0.0586 z m 18.36475,-0.5394 c 0,-0.0473 0.13076,-0.0861 0.29058,-0.0861 0.15982,0 0.29058,0.0387 0.29058,0.0861 0,0.0473 -0.13076,0.0861 -0.29058,0.0861 -0.15982,0 -0.29058,-0.0387 -0.29058,-0.0861 z m -5.6954,-0.60267 v -0.39358 h 0.92986 0.92986 v 0.39358 0.39358 h -0.92986 -0.92986 z m 10.34471,-0.14759 v -0.54117 h 1.10421 1.10421 v 0.54117 0.54117 h -1.10421 -1.10421 z m -8.25252,0.24245 c 0,-0.0591 1.53469,-0.0949 4.06814,-0.0949 2.50317,0 4.06814,0.0361 4.06814,0.0939 0,0.0577 -1.56581,0.0942 -4.06814,0.0948 -2.53428,6.3e-4 -4.06814,-0.0348 -4.06814,-0.0938 z m -10.24963,-0.41149 c 0.062,-0.0525 0.20979,-0.078 0.32845,-0.0567 0.1598,0.0287 0.13057,0.0534 -0.1127,0.0954 -0.2121,0.0366 -0.28853,0.0229 -0.21575,-0.0387 z m 10.24963,-0.0329 c 0,-0.12165 0.59446,-0.14247 4.06814,-0.14247 2.23748,0 4.06817,0.0332 4.0682,0.0738 3e-5,0.0406 -1.68424,0.0615 -3.74284,0.0465 -2.22368,-0.0162 -3.87493,0.0116 -4.0682,0.0687 -0.25868,0.0763 -0.3253,0.0668 -0.3253,-0.0465 z m 1.13716,0.0801 c 0.33777,-0.0199 0.86082,-0.0197 1.16233,4.6e-4 0.30152,0.0202 0.0252,0.0365 -0.61412,0.0362 -0.63928,-2.5e-4 -0.88597,-0.0168 -0.54821,-0.0367 z m 5.69151,0.001 c 0.20776,-0.0218 0.54774,-0.0218 0.75551,0 0.20776,0.0218 0.0378,0.0397 -0.37776,0.0397 -0.41553,0 -0.58552,-0.0179 -0.37775,-0.0397 z m -14.5936,-0.2732 c 0.002,-0.16235 0.0284,-0.21686 0.0579,-0.12112 0.0295,0.0957 0.0275,0.22857 -0.004,0.29518 -0.0318,0.0666 -0.0559,-0.0117 -0.0536,-0.17406 z m 5.99446,-1.10445 c 0.20891,-0.0219 0.52274,-0.0214 0.6974,0.001 0.17466,0.0224 0.004,0.0404 -0.37984,0.0398 -0.38357,-5.6e-4 -0.52647,-0.0189 -0.31756,-0.0408 z m 3.89596,-0.0999 c 0.36992,-0.0196 0.94527,-0.0194 1.27856,4.1e-4 0.33329,0.0198 0.0306,0.0358 -0.67258,0.0356 -0.70321,-2.3e-4 -0.9759,-0.0164 -0.60598,-0.036 z m -14.76579,-0.19179 c 0.11188,-0.0248 0.29494,-0.0248 0.40682,0 0.11187,0.0247 0.0203,0.045 -0.20341,0.045 -0.22375,0 -0.31528,-0.0202 -0.20341,-0.045 z m 0.99525,6.1e-4 c 0.0839,-0.0284 0.18415,-0.0249 0.22277,0.008 0.0386,0.0327 -0.03,0.0559 -0.15255,0.0517 -0.13541,-0.005 -0.16295,-0.028 -0.0702,-0.0594 z m 9.55286,-0.32637 c 0,-0.0541 0.28768,-0.0984 0.63928,-0.0984 0.35161,0 0.63928,0.0443 0.63928,0.0984 0,0.0541 -0.28767,0.0984 -0.63928,0.0984 -0.3516,0 -0.63928,-0.0443 -0.63928,-0.0984 z m 0.32172,-0.46488 c 0.20891,-0.0219 0.52274,-0.0215 0.6974,10e-4 0.17466,0.0225 0.004,0.0404 -0.37984,0.0398 -0.38357,-5.6e-4 -0.52647,-0.0189 -0.31756,-0.0408 z m 10.02299,-0.22388 c 0,-0.0587 0.44555,-0.0984 1.10421,-0.0984 0.65865,0 1.10421,0.0397 1.10421,0.0984 0,0.0587 -0.44556,0.0984 -1.10421,0.0984 -0.65866,0 -1.10421,-0.0397 -1.10421,-0.0984 z m -7.60587,-0.30528 c 0.0355,-0.0486 0.55827,-0.0883 1.16182,-0.0883 0.65407,0 1.09735,-0.0397 1.09735,-0.0984 0,-0.0599 0.52304,-0.0984 1.33667,-0.0984 0.81363,0 1.33668,0.0385 1.33668,0.0984 0,0.0587 0.44555,0.0984 1.10421,0.0984 0.60731,0 1.1042,0.0393 1.1042,0.0873 0,0.0489 -1.58438,0.0877 -3.60269,0.0883 -2.09775,5.8e-4 -3.57577,-0.0359 -3.53824,-0.0873 z m -14.62362,-0.15346 c 0.0799,-0.0273 0.21067,-0.0273 0.29058,0 0.0799,0.0273 0.0145,0.0496 -0.14529,0.0496 -0.15982,0 -0.2252,-0.0223 -0.14529,-0.0496 z m 15.28809,-0.10568 c 0.30559,-0.0203 0.77633,-0.0201 1.0461,5.5e-4 0.26976,0.0206 0.0197,0.0373 -0.55561,0.037 -0.57536,-3e-4 -0.79607,-0.0172 -0.49049,-0.0375 z m 4.88177,0 c 0.30559,-0.0203 0.77633,-0.0201 1.0461,5.5e-4 0.26976,0.0206 0.0197,0.0373 -0.55561,0.037 -0.57536,-3e-4 -0.79607,-0.0172 -0.49049,-0.0375 z m 2.61563,-2.1e-4 c 0.33776,-0.0199 0.86081,-0.0197 1.16232,4.7e-4 0.30152,0.0202 0.0252,0.0365 -0.61411,0.0363 -0.63928,-2.5e-4 -0.88598,-0.0168 -0.54821,-0.0367 z m -22.78549,-0.0909 c 0.0799,-0.0273 0.21067,-0.0273 0.29058,0 0.0799,0.0273 0.0145,0.0496 -0.14529,0.0496 -0.15982,0 -0.2252,-0.0223 -0.14529,-0.0496 z m -1.13327,-4.60858 c 0,-3.91392 0.0219,-4.47696 0.17435,-4.47696 0.15242,0 0.17435,0.56304 0.17435,4.47696 0,3.91392 -0.0219,4.47695 -0.17435,4.47695 -0.15242,0 -0.17435,-0.56303 -0.17435,-4.47695 z m -7.071837,2.50906 c 0,-0.13529 0.02638,-0.19064 0.05863,-0.12299 0.03224,0.0676 0.03224,0.17834 0,0.24598 -0.03225,0.0676 -0.05863,0.0123 -0.05863,-0.12299 z m 7.747437,-7.6436 c 0.0839,-0.0284 0.18416,-0.0249 0.22278,0.008 0.0386,0.0327 -0.03,0.0559 -0.15255,0.0517 -0.13541,-0.005 -0.16295,-0.028 -0.0702,-0.0594 z m -7.736731,-0.099 c 0.111874,-0.0248 0.29494,-0.0248 0.406814,0 0.111874,0.0247 0.02034,0.045 -0.203407,0.045 -0.223748,0 -0.315281,-0.0203 -0.203407,-0.045 z m 7.736731,-0.0978 c 0.0839,-0.0284 0.18416,-0.0249 0.22278,0.008 0.0386,0.0327 -0.03,0.0559 -0.15255,0.0517 -0.13541,-0.005 -0.16295,-0.028 -0.0702,-0.0594 z m -10.671604,-0.12957 c 0,-0.0541 0.0523,-0.0984 0.116232,-0.0984 0.06393,0 0.116233,0.0443 0.116233,0.0984 0,0.0541 -0.0523,0.0984 -0.116233,0.0984 -0.06393,0 -0.116232,-0.0443 -0.116232,-0.0984 z m 8.891794,0.002 c 0.3022,-0.11248 1.22044,-0.12504 1.22044,-0.0167 0,0.046 -0.3269,0.0881 -0.72645,0.0934 -0.50876,0.007 -0.65679,-0.0162 -0.49399,-0.0768 z m 1.68537,-0.10345 c 0,-0.0524 0.0785,-0.0953 0.17435,-0.0953 0.0959,0 0.17435,0.0174 0.17435,0.0387 0,0.0213 -0.0785,0.0641 -0.17435,0.0953 -0.0959,0.0311 -0.17435,0.0138 -0.17435,-0.0387 z m -0.11623,-3.09634 c 0,-2.83705 0.005,-2.90264 0.23247,-2.90264 0.22721,0 0.23246,0.0656 0.23246,2.90264 0,2.83705 -0.005,2.90264 -0.23246,2.90264 -0.22722,0 -0.23247,-0.0656 -0.23247,-2.90264 z m 0.0291,-3.06886 c 0.11187,-0.0247 0.29494,-0.0247 0.40681,0 0.11188,0.0248 0.0203,0.045 -0.2034,0.045 -0.22375,0 -0.31528,-0.0203 -0.20341,-0.045 z m -9.116997,-0.0978 c 0.08391,-0.0284 0.184156,-0.0249 0.22278,0.008 0.03862,0.0327 -0.03003,0.0559 -0.152556,0.0517 -0.135404,-0.005 -0.162946,-0.028 -0.07022,-0.0594 z m 1.278559,0 c 0.08391,-0.0284 0.184156,-0.0249 0.222779,0.008 0.03862,0.0327 -0.03003,0.0559 -0.152555,0.0517 -0.135404,-0.005 -0.162946,-0.028 -0.07022,-0.0594 z m -59.256839,-3.57338 v -0.59037 H 61.856537 88.70627 v 0.52524 0.52523 l -4.029016,0.0651 c -2.21596,0.0358 -14.29834,0.0651 -26.849734,0.0651 H 35.006803 Z m 53.931933,-0.0492 v -0.54117 h 1.336605 1.336605 l -0.02899,0.33479 c -0.01594,0.18414 -0.06264,0.31728 -0.103764,0.29587 -0.04113,-0.0214 -0.107504,0.0715 -0.147505,0.20637 -0.07145,0.24099 -0.09318,0.24531 -1.232842,0.24531 h -1.160111 z m 2.914991,-1.18894 c 0.0056,-0.11462 0.03312,-0.13793 0.07022,-0.0594 0.03358,0.071 0.02945,0.15589 -0.0092,0.18859 -0.03862,0.0327 -0.0661,-0.0254 -0.06105,-0.12915 z"
         id="path2" /><path
         style="fill:#333333;fill-opacity:1"
         d="m 91.728318,167.32257 c 0,-3.28 0.04026,-5.0184 0.116233,-5.0184 0.06447,0 0.116232,-0.26088 0.116232,-0.58587 v -0.58587 l -0.78457,-0.0344 c -0.431513,-0.0189 2.11834,-0.04 5.66634,-0.0468 3.685467,-0.007 6.351257,0.0239 6.218447,0.0722 -0.1566,0.057 -0.17557,0.0873 -0.0581,0.093 0.15072,0.007 0.15153,0.0206 0.006,0.0986 -0.1098,0.0588 -10e-4,0.0712 0.31262,0.0355 0.55567,-0.0631 1.07613,0.0236 1.07613,0.17932 0,0.0703 -0.14614,0.0843 -0.42239,0.0404 -0.35476,-0.0563 -0.41118,-0.0423 -0.35235,0.0874 0.0436,0.0963 0.007,0.15452 -0.097,0.15452 -0.10074,0 -0.1405,-0.0586 -0.10015,-0.14759 0.0489,-0.10794 -0.0145,-0.14759 -0.23611,-0.14759 -0.27292,0 -0.30302,0.0368 -0.30302,0.37074 v 0.37074 l 0.78457,-0.01 c 1.20331,-0.0149 1.27583,-0.0279 1.34129,-0.23979 0.0334,-0.10823 0.14051,-0.19679 0.23794,-0.19679 0.0974,0 0.19982,-0.0996 0.22752,-0.22139 0.0277,-0.12176 0.0575,1.31726 0.0662,3.19783 l 0.0158,3.41921 h 0.3487 0.34869 l 0.007,-0.91015 c 0.004,-0.50058 0.004,-1.96174 0.002,-3.24702 l -0.005,-2.33687 0.31805,0.0114 c 0.19669,0.007 0.24044,0.0286 0.11465,0.0564 -0.27311,0.0604 -0.26049,0.32575 0.0155,0.32575 0.12876,0 0.24685,-0.0905 0.28677,-0.21969 0.0498,-0.16129 0.10225,-0.19059 0.1972,-0.11021 0.0843,0.0714 0.10891,0.396 0.0707,0.93305 -0.0323,0.45297 -0.0557,0.88999 -0.0521,0.97117 0.004,0.0812 0.0128,1.13278 0.0203,2.3369 0.008,1.20411 0.053,2.18929 0.10094,2.18928 0.0479,-2e-5 0.088,-1.51654 0.0889,-3.37005 10e-4,-2.00584 0.0474,-3.42976 0.11445,-3.5176 0.0751,-0.0984 0.11327,0.43251 0.11446,1.59207 0.002,1.72866 0.003,1.73986 0.2633,1.7711 0.19156,0.023 0.26152,0.0972 0.26152,0.27743 0,0.16072 -0.0906,0.27965 -0.26152,0.34311 -0.25478,0.0946 -0.26152,0.13588 -0.26152,1.59892 v 1.50178 h 0.63928 0.63927 l 0.0237,-1.25453 0.0237,-1.25453 0.0688,1.27913 c 0.0457,0.85048 0.0773,0.0591 0.0943,-2.36147 0.014,-2.00233 0.0644,-3.58878 0.11204,-3.52545 0.0584,0.0777 0.85248,0.13838 2.43911,0.18646 l 2.35257,0.0713 v 3.28195 c 0,2.8517 0.0229,3.28196 0.17435,3.28196 0.15145,0 0.17435,-0.42638 0.17435,-3.24703 0,-2.09908 0.0411,-3.24702 0.11623,-3.24702 0.0639,0 0.11623,0.13283 0.11623,0.29518 0,0.29221 0.006,0.29519 0.63928,0.29519 0.63282,0 0.63928,-0.003 0.63928,-0.29519 0,-0.22669 0.0524,-0.29518 0.22582,-0.29518 0.34226,0 1.03844,-0.38368 1.22577,-0.67555 0.0915,-0.14256 0.16846,-0.20385 0.17101,-0.13621 0.003,0.0884 0.28222,0.123 0.99264,0.123 0.71337,0 0.98772,-0.0342 0.98707,-0.123 -0.001,-0.1617 -0.54823,-0.3732 -0.77486,-0.29959 -0.25773,0.0837 -0.40978,-0.17976 -0.21103,-0.36568 0.11022,-0.1031 0.17481,-0.45442 0.19753,-1.07431 0.0478,-1.30308 -0.0207,-1.27223 2.88145,-1.29793 l 2.26654,-0.0201 0.0322,1.39144 c 0.0281,1.21456 0.01,1.38411 -0.14529,1.33377 -0.0976,-0.0317 -0.17753,-0.009 -0.17753,0.0512 0,0.0664 -0.24841,0.10892 -0.63563,0.10892 -0.51725,0 -0.62317,0.0275 -0.56872,0.1476 0.0881,0.19426 1.96566,0.21671 2.05724,0.0246 0.0373,-0.0783 0.062,-0.0648 0.0678,0.0371 0.005,0.0881 0.0838,0.21261 0.1751,0.27672 0.13605,0.0956 0.17478,0.0667 0.21505,-0.16014 0.0358,-0.20173 0.0538,-0.16339 0.0665,0.14146 l 0.0174,0.41818 h 1.10421 1.10421 v -0.38604 -0.38604 l 0.31963,0.12996 c 0.17581,0.0715 0.69885,0.21073 1.16233,0.30944 l 0.84269,0.17947 v 3.67382 c 0,2.02059 -0.0429,3.65134 -0.0954,3.62388 -0.0525,-0.0275 -0.53631,0.0548 -1.07515,0.18285 l -0.97973,0.23277 2.32466,0.0327 2.32465,0.0327 0.0349,0.56577 0.0349,0.56577 h 0.57942 0.57943 l -0.0331,1.00854 -0.0331,1.00855 -20.71846,0.0249 -20.718462,0.0249 z m 2.358545,4.84672 c -0.396891,-0.0192 -1.076852,-0.0193 -1.511024,-3.2e-4 -0.434173,0.019 -0.109444,0.0347 0.72162,0.0348 0.831063,1.7e-4 1.186295,-0.0154 0.789404,-0.0345 z m 38.356757,0 c -0.39689,-0.0192 -1.07685,-0.0193 -1.51102,-3.2e-4 -0.43417,0.019 -0.10944,0.0347 0.72162,0.0348 0.83106,1.7e-4 1.1863,-0.0154 0.7894,-0.0345 z m -2.35854,-0.87435 v -0.82401 l -5.72446,9e-5 c -3.14845,6e-5 -8.66659,0.0294 -12.26254,0.0653 l -6.53808,0.0652 -0.0231,0.74645 -0.0231,0.74645 -0.0401,-0.71336 -0.0401,-0.71336 h -2.19823 -2.19824 l -0.0401,0.71336 -0.0401,0.71336 -0.0231,-0.76256 -0.0231,-0.76256 h -3.022043 -3.022048 v 0.77458 0.77458 l 17.609241,2.4e-4 17.60924,2.4e-4 z m -10.78654,0.0369 -0.0231,-0.76256 h 2.32465 2.32465 l -0.0231,0.76256 -0.0231,0.76256 -0.0401,-0.71336 -0.0401,-0.71336 h -2.19824 -2.19824 l -0.0401,0.71336 -0.0401,0.71336 z m -24.548174,-0.0738 v -0.68877 h -1.452907 -1.452908 v 0.68877 0.68876 h 1.452908 1.452907 z m 38.356764,0 v -0.68877 h -1.45291 -1.45291 v 0.68877 0.68876 h 1.45291 1.45291 z m -39.020267,-0.85991 c -0.396891,-0.0191 -1.076852,-0.0193 -1.511024,-3.1e-4 -0.434173,0.019 -0.109444,0.0347 0.72162,0.0348 0.831063,1.7e-4 1.186295,-0.0154 0.789404,-0.0345 z m 17.380037,-9.5e-4 c -1.57776,-0.0155 -4.193,-0.0155 -5.81163,-3e-5 -1.61863,0.0154 -0.32774,0.0281 2.86866,0.0281 3.1964,1e-5 4.52073,-0.0126 2.94297,-0.0281 z m 20.97672,9.5e-4 c -0.39689,-0.0191 -1.07685,-0.0193 -1.51102,-3.1e-4 -0.43417,0.019 -0.10944,0.0347 0.72162,0.0348 0.83106,1.7e-4 1.1863,-0.0154 0.7894,-0.0345 z m -0.49882,-0.66521 v -0.54117 h -7.82645 c -4.30455,0 -13.32711,0.0294 -20.05013,0.0654 l -12.223669,0.0654 v 0.47573 0.47573 h 20.050129 20.05012 z m -40.013221,-5.62675 c -0.01905,-0.96407 -0.03466,-0.20313 -0.0347,1.69096 -4e-5,1.8941 0.01554,2.68288 0.03463,1.75285 0.01909,-0.93002 0.01912,-2.47974 7.3e-5,-3.44381 z m 0.232235,2.06529 c -0.02058,-0.5847 -0.0375,-0.13326 -0.0376,1.0032 -9.5e-5,1.13646 0.01675,1.61485 0.03743,1.06309 0.02068,-0.55176 0.02076,-1.48159 1.72e-4,-2.06629 z m 4.491742,1.96255 c -0.0085,-0.58176 -0.02225,-2.15201 -0.03049,-3.48945 l -0.01498,-2.43171 -1.131539,-0.0282 -1.131539,-0.0282 -0.07257,-0.37923 c -0.03992,-0.20857 -0.145303,-0.41821 -0.234194,-0.46587 -0.09683,-0.0519 0.816899,-0.0959 2.279264,-0.10981 2.177869,-0.0207 2.259279,-0.0269 0.755512,-0.0573 -0.926955,-0.0188 -2.326105,-0.005 -3.109222,0.0316 l -1.423849,0.0657 v 3.97507 3.97508 h 2.064559 2.06456 z m -3.493872,-0.77019 c -0.0387,-0.0854 0.01525,-0.2277 0.11988,-0.31627 0.171127,-0.14487 0.208192,-0.14585 0.368863,-0.01 0.101051,0.0855 0.146127,0.22289 0.103797,0.31627 -0.09463,0.20877 -0.499319,0.21549 -0.59254,0.01 z m 0.426356,-0.13997 c 0,-0.0541 -0.07846,-0.0984 -0.174349,-0.0984 -0.09589,0 -0.174349,0.0443 -0.174349,0.0984 0,0.0541 0.07846,0.0984 0.174349,0.0984 0.09589,0 0.174349,-0.0443 0.174349,-0.0984 z m -0.387442,-5.18211 c -0.147242,-0.12465 -0.07682,-0.40554 0.117497,-0.46867 0.109037,-0.0354 0.271148,0.001 0.367771,0.0829 0.141966,0.12018 0.146113,0.17348 0.02325,0.2988 -0.156944,0.16009 -0.377552,0.1978 -0.508516,0.0869 z m 0.387442,-0.18039 c 0,-0.0812 -0.07846,-0.14759 -0.174349,-0.14759 -0.181506,0 -0.230602,0.11637 -0.09686,0.22958 0.133741,0.11322 0.271209,0.0717 0.271209,-0.082 z m 7.55512,3.35349 v -3.97691 l -0.80425,-0.0327 c -0.442337,-0.018 -0.800166,-0.0105 -0.795175,0.0165 0.005,0.0271 -0.02313,0.11562 -0.0625,0.19679 -0.03936,0.0812 -0.0869,0.28043 -0.105627,0.44278 l -0.03406,0.29518 -1.191384,0.028 -1.191384,0.028 v 3.48957 3.48957 h 2.092187 2.092183 z m -1.239985,2.14898 c -0.0387,-0.0854 0.01525,-0.2277 0.119885,-0.31627 0.17616,-0.14913 0.20431,-0.14913 0.38048,0 0.23764,0.20116 0.12856,0.47149 -0.19024,0.47149 -0.13187,0 -0.271425,-0.0699 -0.310125,-0.15522 z m 0.484475,-0.13997 c -0.0395,-0.0541 -0.12106,-0.0984 -0.18121,-0.0984 -0.0602,0 -0.10937,0.0443 -0.10937,0.0984 0,0.0541 0.0815,0.0984 0.1812,0.0984 0.0997,0 0.14889,-0.0443 0.10938,-0.0984 z m -0.456768,-5.28158 c -0.04233,-0.0934 0.0027,-0.23072 0.103798,-0.31627 0.16067,-0.13601 0.19774,-0.13502 0.36886,0.01 0.10464,0.0886 0.15858,0.2309 0.11988,0.31627 -0.0932,0.20565 -0.4979,0.19893 -0.592538,-0.01 z m 0.416088,-0.0809 c 0,-0.0514 -0.0562,-0.10934 -0.12495,-0.12874 -0.0687,-0.0194 -0.12495,0.0385 -0.12495,0.12874 0,0.0902 0.0562,0.14812 0.12495,0.12873 0.0687,-0.0194 0.12495,-0.0773 0.12495,-0.12873 z m 1.23169,4.31011 c -0.0206,-0.5847 -0.0375,-0.13326 -0.0376,1.0032 -1e-4,1.13646 0.0167,1.61485 0.0374,1.06309 0.0207,-0.55176 0.0208,-1.48159 1.8e-4,-2.06629 z m 12.69879,2.91061 c 1.63016,-0.006 2.87239,-0.0318 2.76052,-0.0565 -0.11187,-0.0247 -0.20341,-0.12345 -0.20341,-0.21933 0,-0.0959 -0.10331,-0.25347 -0.22959,-0.35021 -0.24876,-0.19058 0.10024,-0.19303 -5.33275,0.0375 -1.04556,0.0444 -1.93474,0.11999 -1.97596,0.16808 -0.12322,0.14378 -1.68755,0.10694 -1.79966,-0.0424 -0.0611,-0.0814 -0.29979,-0.12401 -0.63928,-0.11425 -1.18916,0.0342 -1.38353,0.007 -1.44723,-0.1987 -0.0334,-0.10824 -0.14415,-0.19679 -0.24602,-0.19679 -0.10363,0 -0.18523,-0.0813 -0.18523,-0.18449 0,-0.23296 -0.46652,-0.32136 -1.27049,-0.24076 -0.38329,0.0384 -0.58924,0.0224 -0.58924,-0.0458 0,-0.0577 0.0915,-0.12513 0.20341,-0.14988 0.12514,-0.0277 0.0804,-0.0494 -0.11623,-0.0564 -0.24665,-0.009 -0.31964,0.0335 -0.31964,0.18537 0,0.17055 -0.0775,0.19679 -0.58116,0.19679 h -0.58117 v 0.70477 0.70477 l 4.7946,-0.0651 c 2.63703,-0.0358 6.12836,-0.0703 7.75853,-0.0766 z m -1.83067,-0.73588 1.36573,-0.0594 v -0.53146 -0.53147 h -2.20842 -2.20841 v 0.63198 0.63198 l 0.84268,-0.0411 c 0.46348,-0.0226 1.45727,-0.0678 2.20842,-0.10052 z M 106.987,168.0063 c -0.0743,-0.24039 -0.41867,-0.2183 -0.47527,0.0305 -0.0285,0.12535 0.0381,0.17106 0.24931,0.17106 0.23327,0 0.27635,-0.0384 0.22596,-0.20155 z m -4.68151,-0.7332 c 0,-0.4067 -0.0237,-0.44277 -0.29059,-0.44277 -0.2669,0 -0.29058,0.0361 -0.29058,0.44277 0,0.4067 0.0237,0.44278 0.29058,0.44278 0.26691,0 0.29059,-0.0361 0.29059,-0.44278 z m 0.46493,0 c 0,-0.32798 -0.0452,-0.44277 -0.17435,-0.44277 -0.12915,0 -0.17435,0.11479 -0.17435,0.44277 0,0.32798 0.0452,0.44278 0.17435,0.44278 0.12914,0 0.17435,-0.1148 0.17435,-0.44278 z m 4.18437,-0.0984 c 0,-0.32798 -0.0452,-0.44278 -0.17435,-0.44278 -0.12915,0 -0.17435,0.1148 -0.17435,0.44278 0,0.32798 0.0452,0.44277 0.17435,0.44277 0.12915,0 0.17435,-0.11479 0.17435,-0.44277 z m -1.76674,0.12791 c 0.17335,-0.14674 0.18495,-0.76748 0.0143,-0.76748 -0.0718,0 -0.11044,0.14445 -0.0906,0.33911 0.019,0.1865 -0.003,0.37099 -0.0492,0.40997 -0.0461,0.039 -0.0837,0.0192 -0.0837,-0.0439 0,-0.0721 -0.21586,-0.11479 -0.58117,-0.11479 -0.4391,0 -0.58116,0.0361 -0.58116,0.14759 0,0.18525 1.15814,0.21017 1.37154,0.0295 z m -1.9527,-0.0787 c 0,-0.0541 -0.0785,-0.0984 -0.17435,-0.0984 -0.0959,0 -0.17435,0.0443 -0.17435,0.0984 0,0.0541 0.0785,0.0984 0.17435,0.0984 0.0959,0 0.17435,-0.0443 0.17435,-0.0984 z m 21.49966,-0.0945 c 0.094,-0.0503 0.14129,-0.11667 0.105,-0.14739 -0.0363,-0.0307 -1.86544,-0.0442 -4.06477,-0.0299 -3.18825,0.0207 -3.93989,0.0496 -3.70821,0.14266 0.35737,0.1436 7.40501,0.17547 7.66798,0.0347 z m -21.45608,-0.40972 c 0.14607,-0.61824 0.0827,-1.15997 -0.15982,-1.36522 l -0.23246,-0.19679 v 0.93475 c 0,0.72752 0.0354,0.93475 0.15982,0.93475 0.0879,0 0.19251,-0.13837 0.23246,-0.30749 z m 1.35121,0.0123 c 0,-0.15306 -0.0775,-0.19679 -0.3487,-0.19679 -0.27121,0 -0.3487,0.0437 -0.3487,0.19679 0,0.15306 0.0775,0.19679 0.3487,0.19679 0.27121,0 0.3487,-0.0437 0.3487,-0.19679 z m 0.3487,0 c 0,-0.10823 -0.0523,-0.19679 -0.11624,-0.19679 -0.0639,0 -0.11623,0.0886 -0.11623,0.19679 0,0.10824 0.0523,0.19679 0.11623,0.19679 0.0639,0 0.11624,-0.0885 0.11624,-0.19679 z m 8.72903,-0.0246 c 0.0111,-0.21239 0.0154,-0.21139 0.10464,0.0246 0.0602,0.15922 0.0901,-0.0664 0.0846,-0.63956 -0.008,-0.88146 -0.009,-0.8826 -0.0846,-0.24599 l -0.0761,0.63957 -0.0201,-0.61497 -0.0201,-0.61497 h -2.09219 -2.09218 v 0.83636 0.83635 h 2.09218 c 2.08876,0 2.09221,-3.6e-4 2.10378,-0.22139 z m -16.896615,-1.1837 c -0.02438,-0.22837 -0.04403,-0.0167 -0.04368,0.47034 3.54e-4,0.48706 0.0203,0.6739 0.04432,0.41521 0.02402,-0.25869 0.02373,-0.65719 -6.44e-4,-0.88555 z m 12.553295,0.10136 c -0.0245,-0.23 -0.0445,-0.0418 -0.0445,0.41818 0,0.45999 0.02,0.64817 0.0445,0.41818 0.0245,-0.23 0.0245,-0.60636 0,-0.83636 z m 15.49006,1.00855 c 0,-0.0637 -1.41645,-0.0984 -4.01688,-0.0984 -2.64833,0 -3.99241,0.0335 -3.94505,0.0984 0.0456,0.0625 1.51223,0.0984 4.01688,0.0984 2.55255,0 3.94505,-0.0347 3.94505,-0.0984 z m -22.08419,-2.21388 v -2.21388 h -0.52305 -0.52305 v 1.01157 1.01157 l 0.34615,0.11061 c 0.72742,0.23243 0.76246,1.01898 0.0565,1.26867 -0.37458,0.13249 -0.40268,0.17323 -0.40268,0.58388 v 0.44146 h 0.52305 0.52305 z m 4.21564,2.05094 c -0.0787,-0.0269 -0.23561,-0.0286 -0.3487,-0.004 -0.11309,0.0249 -0.0487,0.047 0.14308,0.049 0.19179,0.002 0.28431,-0.0184 0.20562,-0.0454 z m -3.31999,-0.74721 c -0.0277,-0.12177 -0.0504,-0.0221 -0.0504,0.22138 0,0.24353 0.0227,0.34316 0.0504,0.22139 0.0277,-0.12176 0.0277,-0.32101 0,-0.44277 z m 1.34476,0.42362 c 0.0434,-0.14046 -0.007,-0.19933 -0.18985,-0.22138 -0.33104,-0.04 -0.39113,-0.41183 -0.0949,-0.58746 0.1728,-0.10246 0.23274,-0.27111 0.25689,-0.72287 0.051,-0.95389 0.0625,-0.9336 -0.52716,-0.9336 h -0.52305 l -0.009,0.46737 c -0.0189,0.97151 -0.0195,1.1699 -0.005,1.67271 l 0.0145,0.51657 h 0.50949 c 0.4069,0 0.5214,-0.0385 0.5686,-0.19134 z m 1.97764,-0.10384 c -0.0337,-0.10892 -0.15854,-0.19679 -0.2797,-0.19679 -0.14142,0 -0.21891,0.0697 -0.21891,0.19679 0,0.14227 0.0775,0.19679 0.2797,0.19679 0.22248,0 0.26726,-0.0403 0.21891,-0.19679 z m 15.91925,0.12315 c -1.10276,-0.0162 -2.90727,-0.0162 -4.01003,0 -1.10276,0.0162 -0.2005,0.0294 2.00501,0.0294 2.20552,0 3.10777,-0.0132 2.00502,-0.0294 z m -17.75454,-0.5087 c 0,-0.15614 -0.3723,-0.23329 -0.47132,-0.0977 -0.10232,0.14015 0.0659,0.30062 0.27876,0.26592 0.10591,-0.0173 0.19256,-0.093 0.19256,-0.16826 z m -0.40681,0.008 c 0,-0.0451 0.0785,-0.082 0.17435,-0.082 0.0959,0 0.17435,0.0369 0.17435,0.082 0,0.0451 -0.0785,0.082 -0.17435,0.082 -0.0959,0 -0.17435,-0.0369 -0.17435,-0.082 z m 18.16135,0.008 c -1.10276,-0.0162 -2.90727,-0.0162 -4.01003,0 -1.10276,0.0162 -0.2005,0.0294 2.00501,0.0294 2.20552,0 3.10777,-0.0132 2.00502,-0.0294 z m -15.95293,-0.71352 c 0,-0.54664 -0.036,-0.68876 -0.17435,-0.68876 -0.11623,0 -0.17435,0.0984 -0.17435,0.29518 0,0.16235 0.0523,0.29518 0.11624,0.29518 0.0639,0 0.11623,0.0664 0.11623,0.1476 0,0.0812 -0.0523,0.14759 -0.11623,0.14759 -0.0639,0 -0.11624,0.11069 -0.11624,0.24598 0,0.15306 0.0659,0.24599 0.17435,0.24599 0.13837,0 0.17435,-0.14212 0.17435,-0.68876 z m -4.59949,0.43575 c 0.10046,-0.085 0.18265,-0.26216 0.18265,-0.39358 0,-0.24664 -0.36412,-0.63254 -0.59684,-0.63254 -0.0725,0 0.006,0.0918 0.17435,0.20393 0.16844,0.11216 0.30626,0.30256 0.30626,0.4231 0,0.22863 -0.19624,0.45531 -0.39416,0.45531 -0.0634,0 -0.0218,-0.0578 0.0924,-0.1285 0.12479,-0.0772 0.19161,-0.22043 0.16751,-0.35894 -0.0441,-0.25316 -0.38225,-0.48565 -0.52755,-0.36265 -0.0505,0.0427 -6.8e-4,0.12085 0.11066,0.1736 0.25967,0.12302 0.25922,0.3432 -9.7e-4,0.47301 -0.1774,0.0885 -0.18112,0.1141 -0.029,0.20017 0.23634,0.13378 0.30219,0.12701 0.51474,-0.0529 z m 2.96065,-0.60794 c -0.008,-0.48219 -0.0371,-0.59677 -0.10465,-0.41818 -0.17253,0.45604 -0.12769,1.08234 0.0775,1.08234 0.0213,0 0.0335,-0.29887 0.0272,-0.66416 z m 2.53964,0.22719 c 0,-0.1321 -0.0719,-0.26354 -0.15982,-0.29209 -0.0879,-0.0286 -0.15982,-0.009 -0.15982,0.0434 0,0.0524 0.0628,0.0953 0.13948,0.0953 0.10849,0 0.10849,0.0262 0,0.11808 -0.18536,0.15691 -0.17661,0.2755 0.0203,0.2755 0.092,0 0.15982,-0.10199 0.15982,-0.24018 z m -5.8988,-0.006 c 0,-0.0812 -0.0523,-0.1476 -0.11623,-0.1476 -0.0639,0 -0.11624,0.0664 -0.11624,0.1476 0,0.0812 0.0523,0.14759 0.11624,0.14759 0.0639,0 0.11623,-0.0664 0.11623,-0.14759 z m 6.12107,-0.1722 c -0.0322,-0.0676 -0.0586,-0.0123 -0.0586,0.123 0,0.13529 0.0264,0.19064 0.0586,0.12299 0.0323,-0.0676 0.0323,-0.17834 0,-0.24599 z m -4.37758,0.178 c 0,-0.0239 -0.0523,-0.0708 -0.11624,-0.1042 -0.0639,-0.0335 -0.11623,-0.0139 -0.11623,0.0434 0,0.0573 0.0523,0.1042 0.11623,0.1042 0.0639,0 0.11624,-0.0195 0.11624,-0.0434 z m 9.0952,-0.03 c -0.65526,-0.0175 -1.72751,-0.0175 -2.38277,0 -0.65526,0.0175 -0.11914,0.0319 1.19138,0.0319 1.31053,0 1.84665,-0.0144 1.19139,-0.0319 z m 8.2027,-0.092 c 0.1827,-0.15487 0.17663,-0.16121 -0.0955,-0.0997 -0.15982,0.0361 -0.35596,0.0663 -0.43587,0.067 -0.0799,7.4e-4 -0.14529,0.0456 -0.14529,0.0997 0,0.15883 0.46448,0.11285 0.67664,-0.067 z m -28.834439,-2.65835 c -0.02094,-0.53045 -0.03816,-0.12319 -0.03827,0.90504 -1.12e-4,1.02822 0.01702,1.46223 0.03807,0.96446 0.02105,-0.49778 0.02114,-1.33905 2.04e-4,-1.8695 z m 4.648986,0.73715 c -0.02212,-0.39471 -0.04036,-0.0978 -0.04055,0.65986 -1.81e-4,0.75764 0.01792,1.08059 0.04022,0.71767 0.0223,-0.36293 0.02245,-0.98281 3.3e-4,-1.37753 z m 4.765853,-0.73715 c -0.0209,-0.53045 -0.0382,-0.12319 -0.0383,0.90504 -1.1e-4,1.02822 0.017,1.46223 0.0381,0.96446 0.0211,-0.49778 0.0211,-1.33905 2e-4,-1.8695 z m 1.773,1.76277 c 0,-0.58876 -0.12643,-1.00532 -0.30511,-1.00532 -0.12455,0 -0.15982,0.20923 -0.15982,0.94801 v 0.94802 l 0.23246,-0.25017 c 0.14374,-0.1547 0.23247,-0.39917 0.23247,-0.64054 z m 6.01369,-0.63305 c -0.0236,-0.28592 -0.0431,-0.0771 -0.0434,0.46408 -3e-4,0.54117 0.019,0.77511 0.0428,0.51987 0.0239,-0.25524 0.0241,-0.69802 5.5e-4,-0.98395 z m 4.33101,0.46408 v -0.93475 h -2.09219 -2.09218 v 0.93475 0.93475 h 2.09218 2.09219 z m 0.20206,-0.46408 c -0.0236,-0.28592 -0.0431,-0.0771 -0.0434,0.46408 -3.1e-4,0.54117 0.019,0.77511 0.0428,0.51987 0.0239,-0.25524 0.0241,-0.69802 5.5e-4,-0.98395 z m 2.58752,1.00525 V 163.976 h -0.92986 -0.92986 v 0.39358 0.39358 h 0.92986 0.92986 z m 10.69341,-0.14759 v -0.54117 h -1.10421 -1.10421 v 0.54117 0.54117 h 1.10421 1.10421 z m -2.32466,0.24144 c 0,-0.0577 -1.56497,-0.0939 -4.06814,-0.0939 -2.53345,0 -4.06814,0.0358 -4.06814,0.0949 0,0.0591 1.53386,0.0945 4.06814,0.0938 2.50233,-6.2e-4 4.06814,-0.0371 4.06814,-0.0948 z m -21.18854,-0.61042 c -0.0277,-0.12176 -0.0504,-0.0221 -0.0504,0.22139 0,0.24352 0.0227,0.34315 0.0504,0.22138 0.0277,-0.12176 0.0277,-0.32101 0,-0.44277 z m 3.32542,0.0148 c 0.0443,-0.14356 -0.004,-0.18702 -0.20838,-0.18702 -0.18637,0 -0.28166,0.0687 -0.31789,0.22912 -0.0436,0.19311 -0.0109,0.2225 0.20838,0.18702 0.14306,-0.0231 0.28611,-0.12625 0.31789,-0.22912 z m 14.12034,0.13004 c 2.0586,0.015 3.74287,-0.006 3.74284,-0.0465 -3e-5,-0.0406 -1.83072,-0.0738 -4.0682,-0.0738 -3.47368,0 -4.06814,0.0208 -4.06814,0.14247 0,0.1133 0.0666,0.12282 0.3253,0.0465 0.19327,-0.057 1.84452,-0.0849 4.0682,-0.0687 z m -2.09401,0.10272 c -0.30151,-0.0202 -0.82456,-0.0204 -1.16233,-4.6e-4 -0.33776,0.0199 -0.0911,0.0365 0.54821,0.0367 0.63928,2.6e-4 0.91564,-0.0161 0.61412,-0.0362 z m 5.28469,0.001 c -0.20777,-0.0218 -0.54775,-0.0218 -0.75551,0 -0.20777,0.0218 -0.0378,0.0397 0.37775,0.0397 0.41553,0 0.58552,-0.0179 0.37776,-0.0397 z m -17.2896,-0.61758 c -0.0395,-0.0541 -0.17336,-0.0984 -0.29744,-0.0984 -0.12409,0 -0.22561,0.0443 -0.22561,0.0984 0,0.0541 0.13385,0.0984 0.29744,0.0984 0.1687,0 0.26635,-0.0426 0.22561,-0.0984 z m 12.8437,0.001 c 0.43498,-0.0686 0.34201,-0.0808 -0.5521,-0.0722 -0.59134,0.006 -1.07516,0.0461 -1.07516,0.0898 0,0.10075 0.9417,0.0906 1.62726,-0.0175 z m -15.22647,-0.24729 c 0,-0.0984 -0.11623,-0.14759 -0.3487,-0.14759 -0.23246,0 -0.3487,0.0492 -0.3487,0.14759 0,0.0984 0.11624,0.14759 0.3487,0.14759 0.23247,0 0.3487,-0.0492 0.3487,-0.14759 z m 0.3487,-0.055 c 0,-0.11143 -0.0523,-0.17523 -0.11624,-0.14179 -0.0639,0.0335 -0.11623,0.12462 -0.11623,0.2026 0,0.078 0.0523,0.14178 0.11623,0.14178 0.0639,0 0.11624,-0.0912 0.11624,-0.20259 z m 0.34869,-0.14759 c 0,-0.20841 -0.0471,-0.32557 -0.11623,-0.28938 -0.0639,0.0334 -0.11623,0.19103 -0.11623,0.35019 0,0.15915 0.0523,0.28937 0.11623,0.28937 0.0639,0 0.11623,-0.15758 0.11623,-0.35018 z m 1.62726,-0.24018 c 0,-0.37172 -0.0426,-0.49198 -0.17435,-0.49198 -0.13173,0 -0.17435,0.12026 -0.17435,0.49198 0,0.37171 0.0426,0.49197 0.17435,0.49197 0.13173,0 0.17435,-0.12026 0.17435,-0.49197 z m 13.71545,0.34438 c 0,-0.12182 -0.21309,-0.14759 -1.22044,-0.14759 -1.00735,0 -1.22045,0.0258 -1.22045,0.14759 0,0.12182 0.2131,0.14759 1.22045,0.14759 1.00735,0 1.22044,-0.0258 1.22044,-0.14759 z m -17.43489,-0.34438 c 0,-0.0541 -0.0785,-0.0984 -0.17435,-0.0984 -0.0959,0 -0.17435,0.0443 -0.17435,0.0984 0,0.0541 0.0785,0.0984 0.17435,0.0984 0.0959,0 0.17435,-0.0443 0.17435,-0.0984 z m 1.74349,-0.0492 c 0.1257,-0.12822 0.0589,-0.14759 -0.50882,-0.14759 -0.50341,0 -0.65351,0.0339 -0.65351,0.14759 0,0.10871 0.13402,0.14759 0.50881,0.14759 0.31049,0 0.56522,-0.0575 0.65352,-0.14759 z m 15.6914,-0.0113 c 0,-0.10741 -0.2583,-0.13624 -1.22044,-0.13624 -0.96215,0 -1.22045,0.0288 -1.22045,0.13624 0,0.1074 0.2583,0.13623 1.22045,0.13623 0.96214,0 1.22044,-0.0288 1.22044,-0.13623 z m -5.02498,-0.01 c -0.17466,-0.0224 -0.48849,-0.0229 -0.6974,-0.001 -0.20891,0.0219 -0.066,0.0403 0.31756,0.0408 0.38357,5.5e-4 0.5545,-0.0174 0.37984,-0.0398 z m -1.83275,-0.56926 V 161.614 l -0.72645,-4e-4 c -0.39955,-2.2e-4 -1.39334,-0.0292 -2.20842,-0.0644 l -1.48196,-0.064 v 0.60555 0.60555 h 2.20841 2.20842 z m -8.80462,0.2732 c -0.20776,-0.0218 -0.54774,-0.0218 -0.75551,0 -0.20776,0.0218 -0.0378,0.0397 0.37776,0.0397 0.41553,0 0.58552,-0.0179 0.37775,-0.0397 z M 94.750366,161.763 c 0,-0.26597 -0.04761,-0.34438 -0.209125,-0.34438 -0.170559,0 -0.200367,0.0635 -0.161633,0.34438 0.02885,0.20921 0.110938,0.34438 0.209126,0.34438 0.107234,0 0.161632,-0.1159 0.161632,-0.34438 z m 1.162326,0 c 0,-0.34256 -0.0028,-0.34438 -0.523046,-0.34438 -0.52028,0 -0.523047,0.002 -0.523047,0.34438 0,0.34256 0.0028,0.34438 0.523047,0.34438 0.520279,0 0.523046,-0.002 0.523046,-0.34438 z m 3.370746,0 v -0.34438 h -1.627257 -1.627256 v 0.34438 0.34438 h 1.627256 1.627257 z m 3.022052,-0.14759 c 0,-0.45917 -0.0194,-0.49197 -0.29059,-0.49197 -0.2712,0 -0.29058,0.0328 -0.29058,0.49197 0,0.45918 0.0194,0.49197 0.29058,0.49197 0.27121,0 0.29059,-0.0328 0.29059,-0.49197 z m 0.46493,0 c 0,-0.37171 -0.0426,-0.49197 -0.17435,-0.49197 -0.13173,0 -0.17435,0.12026 -0.17435,0.49197 0,0.37171 0.0426,0.49197 0.17435,0.49197 0.13173,0 0.17435,-0.12026 0.17435,-0.49197 z m -3.455712,-0.45812 c -0.07869,-0.0269 -0.235607,-0.0286 -0.348697,-0.004 -0.113091,0.0249 -0.04871,0.047 0.143078,0.049 0.191784,0.002 0.284313,-0.0184 0.205619,-0.0454 z m 25.191202,-0.0449 c 0,-0.048 -0.49689,-0.0873 -1.1042,-0.0873 -0.65866,0 -1.10421,-0.0397 -1.10421,-0.0984 0,-0.0599 -0.52305,-0.0984 -1.33668,-0.0984 -0.81363,0 -1.33667,0.0385 -1.33667,0.0984 0,0.0587 -0.44328,0.0984 -1.09735,0.0984 -0.60355,0 -1.12636,0.0397 -1.16182,0.0883 -0.0375,0.0514 1.44049,0.0879 3.53824,0.0873 2.01831,-5.5e-4 3.60269,-0.0394 3.60269,-0.0883 z m -15.53037,1.29022 c 0,-0.67647 0.0186,-0.9532 0.0413,-0.61497 0.0227,0.33823 0.0227,0.8917 0,1.22993 -0.0227,0.33824 -0.0413,0.0615 -0.0413,-0.61496 z m -5.74019,-0.39358 c 0,-0.0541 0.13076,-0.0984 0.29058,-0.0984 0.15982,0 0.29058,0.0443 0.29058,0.0984 0,0.0541 -0.13076,0.0984 -0.29058,0.0984 -0.15982,0 -0.29058,-0.0443 -0.29058,-0.0984 z m 3.22545,-0.56141 c 0.14384,-0.0235 0.37921,-0.0235 0.52305,0 0.14384,0.0235 0.0262,0.0426 -0.26152,0.0426 -0.28768,0 -0.40537,-0.0192 -0.26153,-0.0426 z m -12.843702,-0.59466 c 1.774,-0.0153 4.67691,-0.0153 6.450912,0 1.774,0.0153 0.32254,0.0278 -3.225457,0.0278 -3.548,0 -4.999455,-0.0125 -3.225455,-0.0278 z m 0,-0.19679 c 1.774,-0.0153 4.67691,-0.0153 6.450912,0 1.774,0.0153 0.32254,0.0278 -3.225457,0.0278 -3.548,0 -4.999455,-0.0125 -3.225455,-0.0278 z m 0.342886,-0.73311 c -0.08588,-0.0727 -0.139479,-0.42914 -0.139479,-0.92753 0,-0.68818 0.03048,-0.8162 0.203407,-0.85446 0.193721,-0.0429 0.193721,-0.0455 0,-0.0564 -0.1763,-0.01 -0.203407,-0.12025 -0.203407,-0.82809 0,-0.504 0.0534,-0.86188 0.139479,-0.93475 0.198109,-0.16771 5.567029,-0.16771 5.765138,0 0.194876,0.16497 0.189819,1.71783 -0.0058,1.78465 -0.116232,0.0397 -0.116232,0.0512 0,0.0574 0.197182,0.0105 0.202409,1.59277 0.0058,1.75919 -0.198109,0.16771 -5.567029,0.16771 -5.765138,0 z m 5.764027,-0.84127 c 0.02763,-0.6643 0.0025,-0.81176 -0.138431,-0.81176 -0.284746,0 -0.34447,-0.20584 -0.07691,-0.26507 0.231945,-0.0513 0.246374,-0.10866 0.215102,-0.85433 l -0.03352,-0.79929 h -2.847699 -2.847699 l -0.03376,0.81175 c -0.02819,0.67781 -0.0042,0.81176 0.145291,0.81176 0.09848,0 0.17905,0.0664 0.17905,0.14759 0,0.0812 -0.07846,0.14759 -0.174349,0.14759 -0.140139,0 -0.174349,0.15124 -0.174349,0.77076 0,0.42392 0.03578,0.80105 0.07951,0.83806 0.04373,0.037 1.338269,0.0555 2.876757,0.041 l 2.797251,-0.0263 z m -5.102471,0.73796 c -0.0069,-0.0135 -0.02026,-0.23492 -0.02963,-0.49197 l -0.01704,-0.46738 h 1.656889 1.65689 v 0.3932 0.39319 l -1.133268,-0.0103 c -1.859874,-0.0169 -2.201768,0.002 -2.005013,0.10943 0.116233,0.0636 0.125919,0.0959 0.02906,0.0969 -0.07991,8.3e-4 -0.150958,-0.01 -0.157884,-0.0231 z m 2.773118,-0.34735 c -0.23973,-0.0184 -0.435872,-0.0751 -0.435872,-0.12597 0,-0.0509 0.196142,-0.0995 0.435872,-0.1082 l 0.435872,-0.0157 -0.405798,-0.0415 c -0.223189,-0.0228 -0.449466,-0.0932 -0.502838,-0.15644 -0.07311,-0.0866 -0.111576,-0.0847 -0.155992,0.008 -0.03275,0.0683 -0.256995,0.12299 -0.504512,0.12299 -0.247516,0 -0.471762,-0.0547 -0.504512,-0.12299 -0.04466,-0.0932 -0.0826,-0.0949 -0.156485,-0.007 -0.05364,0.0636 -0.306071,0.13366 -0.560954,0.15565 l -0.463422,0.04 0.493989,0.0165 c 0.271694,0.009 0.493988,0.0583 0.493988,0.10928 0,0.051 -0.222294,0.10782 -0.493988,0.12625 -0.271694,0.0184 0.238277,0.0334 1.133268,0.0332 0.894991,-1.6e-4 1.431114,-0.0154 1.191384,-0.0338 z m -1.662811,-0.14837 c -0.09426,-0.0916 0.02901,-0.11925 0.531349,-0.11925 0.523263,0 0.62502,0.0246 0.508787,0.123 -0.184321,0.15603 -0.878268,0.15353 -1.040136,-0.004 z m 3.086661,0.44272 c 0.241918,-0.0505 0.204885,-0.0696 -0.221129,-0.11451 -0.494518,-0.0521 -0.512656,-0.0661 -0.539823,-0.41789 l -0.02811,-0.36402 0.539822,-0.0364 0.539823,-0.0364 -0.561791,-0.0177 c -0.70741,-0.0223 -0.698707,-0.26372 0.0095,-0.26372 0.259837,0 0.445048,-0.0374 0.41158,-0.083 -0.03347,-0.0457 -0.264425,-0.0666 -0.513237,-0.0465 -0.592812,0.0479 -0.525144,-0.14371 0.08186,-0.23175 l 0.455845,-0.0661 -0.469082,0.0175 c -0.350245,0.0131 -0.469082,-0.0202 -0.469082,-0.13126 0,-0.11199 0.105437,-0.14026 0.426421,-0.11435 0.234531,0.0189 0.453803,-0.003 0.487272,-0.0486 0.03347,-0.0457 -0.151743,-0.083 -0.41158,-0.083 -0.693327,0 -0.69938,-0.2259 -0.0073,-0.2718 l 0.559566,-0.0371 -0.561791,-0.0177 c -0.70741,-0.0223 -0.698707,-0.26373 0.0095,-0.26373 0.259837,0 0.445048,-0.0374 0.41158,-0.083 -0.03347,-0.0457 -0.254279,-0.0674 -0.490689,-0.0483 -0.370718,0.0299 -0.427554,0.008 -0.413233,-0.16295 0.01319,-0.15697 0.122417,-0.20875 0.530614,-0.25154 0.390952,-0.041 0.450973,-0.0677 0.250706,-0.11149 l -0.263304,-0.0576 0.263304,0.0131 c 0.262653,0.0131 0.263305,0.0172 0.263305,1.6858 v 1.67271 l -0.290581,0.0161 -0.290582,0.0161 z m -0.0277,-0.28519 c -0.111129,-0.0246 -0.320348,-0.0255 -0.464931,-0.002 -0.144583,0.0235 -0.05366,0.0437 0.202052,0.0448 0.255712,0.001 0.374007,-0.0182 0.262879,-0.0428 z m 0,-0.29519 c -0.111129,-0.0246 -0.320348,-0.0255 -0.464931,-0.002 -0.144583,0.0235 -0.05366,0.0437 0.202052,0.0448 0.255712,10e-4 0.374007,-0.0182 0.262879,-0.0428 z m 0,-2.45986 c -0.111129,-0.0246 -0.320348,-0.0255 -0.464931,-0.002 -0.144583,0.0235 -0.05366,0.0437 0.202052,0.0448 0.255712,0.001 0.374007,-0.0182 0.262879,-0.0428 z m -4.167615,1.9125 c -0.006,-0.0676 -0.01943,-0.35545 -0.02981,-0.63956 l -0.01887,-0.51657 h 1.075904 c 0.878871,0 1.075905,0.027 1.075905,0.14759 0,0.18631 -0.881212,0.20867 -0.969443,0.0246 -0.04466,-0.0932 -0.0826,-0.095 -0.156485,-0.007 -0.05364,0.0636 -0.306071,0.13365 -0.560954,0.15565 l -0.463422,0.04 0.493989,0.0165 c 0.271694,0.009 0.493988,0.0583 0.493988,0.10928 0,0.051 -0.222294,0.10969 -0.493988,0.1304 l -0.493989,0.0377 0.493989,0.0172 c 0.271694,0.009 0.493988,0.0589 0.493988,0.10993 0,0.051 -0.222294,0.10968 -0.493988,0.1304 l -0.493989,0.0377 0.493989,0.0172 c 0.295443,0.0103 0.493988,0.0647 0.493988,0.13527 0,0.0918 0.031,0.0918 0.13948,0 0.20939,-0.17726 1.022847,-0.15378 1.022847,0.0295 0,0.12026 -0.193721,0.1476 -1.046094,0.1476 -0.75355,0 -1.049154,-0.0344 -1.057037,-0.123 z m 2.248421,0 c 0.02751,-0.0699 0.24086,-0.12299 0.493989,-0.12299 0.253129,0 0.466475,0.0531 0.493989,0.12299 0.03413,0.0867 -0.111713,0.123 -0.493989,0.123 -0.382276,0 -0.52812,-0.0363 -0.493989,-0.123 z m -1.151385,-0.29518 c 0.09845,-0.0541 0.09201,-0.0969 -0.02409,-0.16028 -0.133768,-0.073 -0.133768,-0.0948 0,-0.1401 0.116194,-0.0393 0.12266,-0.0753 0.02425,-0.13491 -0.07684,-0.0465 0.150236,-0.0813 0.53135,-0.0813 0.511783,0 0.633819,0.0268 0.528237,0.11623 -0.07552,0.0639 -0.340776,0.13397 -0.589465,0.15565 l -0.452163,0.0394 0.484303,0.0165 c 0.266366,0.009 0.510832,0.0719 0.543256,0.13953 0.04442,0.0927 0.08288,0.0946 0.155992,0.008 0.05337,-0.0633 0.279649,-0.13365 0.502838,-0.15645 l 0.405798,-0.0414 -0.435872,-0.0157 c -0.23973,-0.009 -0.435872,-0.06 -0.435872,-0.11414 0,-0.0541 0.196142,-0.10468 0.435872,-0.11236 l 0.435872,-0.014 -0.455844,-0.0598 c -0.670178,-0.088 -0.68355,-0.30582 -0.01877,-0.30582 h 0.532733 l -9.3e-5,0.46737 -9.3e-5,0.46737 h -1.151292 c -0.633211,0 -1.090835,-0.0332 -1.016943,-0.0738 z m -1.140982,-1.4196 c 0.003,-0.3188 0.05679,-0.4723 0.174924,-0.49946 0.144975,-0.0333 0.144405,-0.0236 -0.0038,0.0652 -0.197153,0.11803 0.101809,0.13569 2.005013,0.11843 l 1.133268,-0.0103 v 0.39319 0.3932 h -0.532733 c -0.664778,0 -0.651406,-0.21785 0.01877,-0.30582 l 0.455844,-0.0598 -0.426186,-0.014 c -0.234402,-0.008 -0.456697,-0.0693 -0.493988,-0.13696 -0.05424,-0.0984 -0.08136,-0.0984 -0.135605,0 -0.03729,0.0676 -0.268304,0.12299 -0.513361,0.12299 -0.247516,0 -0.471762,-0.0547 -0.504512,-0.12299 -0.04466,-0.0932 -0.0826,-0.095 -0.156485,-0.007 -0.05364,0.0636 -0.306071,0.13366 -0.560954,0.15565 l -0.463422,0.04 0.484303,0.0165 c 0.266366,0.009 0.514813,0.0719 0.552105,0.13953 0.05424,0.0984 0.08136,0.0984 0.135604,0 0.101087,-0.18337 0.978292,-0.16131 0.978292,0.0246 0,0.12056 -0.197014,0.14759 -1.075727,0.14759 h -1.075726 z m 0.781343,-0.19956 c -0.143837,-0.0234 -0.379209,-0.0234 -0.523046,0 -0.143838,0.0235 -0.02615,0.0426 0.261523,0.0426 0.287676,0 0.405361,-0.0192 0.261523,-0.0426 z m 1.162327,0 c -0.143838,-0.0234 -0.379209,-0.0234 -0.523047,0 -0.143838,0.0235 -0.02615,0.0426 0.261523,0.0426 0.287676,0 0.405361,-0.0192 0.261524,-0.0426 z m 1.105565,0.002 c -0.111129,-0.0246 -0.320348,-0.0255 -0.464931,-0.002 -0.144583,0.0235 -0.05366,0.0437 0.202052,0.0448 0.255712,10e-4 0.374007,-0.0182 0.262879,-0.0428 z m -6.007217,-4.97512 c -0.0086,-0.16156 0.313886,-0.17219 5.221291,-0.17219 2.876757,0 5.230514,0.0332 5.230574,0.0738 6e-5,0.0406 -1.13323,0.061 -2.51841,0.0454 -1.950444,-0.022 -2.539268,0 -2.610502,0.0976 -0.07326,0.10033 -0.121364,0.10111 -0.236301,0.004 -0.207756,-0.17587 -4.934996,-0.17509 -5.01885,8.3e-4 -0.03502,0.0735 -0.06232,0.0537 -0.0678,-0.0492 z m -1.462084,-0.56577 c 0.04653,-0.0637 2.401061,-0.0984 6.683375,-0.0984 4.282314,0 6.636844,0.0347 6.683374,0.0984 0.0476,0.0652 -2.2095,0.0984 -6.683374,0.0984 -4.473876,0 -6.730951,-0.0332 -6.683375,-0.0984 z m 1.598198,-0.26975 c 0.431514,-0.0189 1.137627,-0.0189 1.569141,0 0.431513,0.0189 0.07846,0.0344 -0.78457,0.0344 -0.863028,0 -1.216084,-0.0155 -0.784571,-0.0344 z m 7.903818,-3e-4 c 0.559363,-0.018 1.474703,-0.018 2.034063,0 0.55937,0.018 0.10171,0.0328 -1.01703,0.0328 -1.118736,0 -1.576402,-0.0147 -1.017033,-0.0328 z m -8.572372,-0.22222 c -0.04131,-0.0566 0.02888,-0.0856 0.164494,-0.0681 0.333725,0.0431 0.446839,0.16682 0.152536,0.16682 -0.134737,0 -0.277401,-0.0444 -0.31703,-0.0987 z m 10.635495,3e-4 c 0,-0.0541 0.0523,-0.0984 0.11624,-0.0984 0.0639,0 0.11623,0.0443 0.11623,0.0984 0,0.0541 -0.0523,0.0984 -0.11623,0.0984 -0.0639,0 -0.11624,-0.0443 -0.11624,-0.0984 z m 0.3487,0.0209 c 0,-0.0426 0.10461,-0.0841 0.23247,-0.0923 0.12785,-0.008 0.23246,0.0267 0.23246,0.0775 0,0.0507 -0.10461,0.0923 -0.23246,0.0923 -0.12786,0 -0.23247,-0.0349 -0.23247,-0.0775 z m -8.215329,-0.29146 c 1.650612,-0.0154 4.318151,-0.0154 5.927863,3e-5 1.609706,0.0154 0.259206,0.028 -3.001114,0.028 -3.260325,-2e-5 -4.577362,-0.0126 -2.926749,-0.028 z m 0.05809,-5.90367 c 1.618634,-0.0154 4.233867,-0.0154 5.811631,3e-5 1.577768,0.0154 0.253428,0.0281 -2.942969,0.0281 -3.196397,-2e-5 -4.487295,-0.0127 -2.868662,-0.0281 z m -2.507096,-0.19474 c 0.239729,-0.0212 0.632014,-0.0212 0.871744,0 0.23973,0.0212 0.04359,0.0386 -0.435872,0.0386 -0.47946,0 -0.675602,-0.0174 -0.435872,-0.0386 z m 2.326864,0.003 c 0.113091,-0.0249 0.270005,-0.0233 0.348698,0.004 0.07869,0.0269 -0.01384,0.0474 -0.205619,0.0454 -0.191784,-0.002 -0.25617,-0.0241 -0.143079,-0.049 z m 1.335818,-0.001 c 0.144583,-0.0235 0.353802,-0.0226 0.46493,0.002 0.111129,0.0246 -0.0072,0.0439 -0.262878,0.0428 -0.255712,-0.001 -0.346635,-0.0213 -0.202052,-0.0448 z m 0.812273,0.004 c 0.07991,-0.0273 0.210672,-0.0273 0.290582,0 0.07991,0.0273 0.01453,0.0496 -0.145291,0.0496 -0.15982,0 -0.225201,-0.0223 -0.145291,-0.0496 z m 2.04102,-0.008 c 0.882831,-0.0167 2.29506,-0.0167 3.13828,10e-5 0.84323,0.0168 0.12091,0.0305 -1.605147,0.0304 -1.726054,-5e-5 -2.415964,-0.0138 -1.533133,-0.0305 z m -63.150316,-5.13977 v -3.14709 l 28.564165,-0.0261 c 15.71029,-0.0144 28.747231,-0.003 28.970978,0.0255 0.84484,0.10734 0.04877,0.2406 -1.656314,0.27727 l -1.714431,0.0369 v 1.31474 1.31475 l 1.540082,0.0306 1.540082,0.0306 -1.540082,0.0215 -1.540082,0.0215 v 1.08234 1.08234 h 1.146535 1.146535 l 0.18791,-0.41818 c 0.103351,-0.22999 0.221822,-0.563 0.263269,-0.74 0.04145,-0.17701 0.115257,-0.34271 0.164021,-0.36822 0.145132,-0.0759 -0.09218,0.67449 -0.409192,1.29393 l -0.295218,0.57685 -1.10193,-0.0313 -1.10193,-0.0314 v 0.35113 c 0,0.19313 -0.05231,0.35114 -0.116233,0.35114 -0.06393,0 -0.116233,-0.15497 -0.116233,-0.34438 V 141.5429 H 61.856537 35.006803 v 0.39358 c 0,0.21647 -0.0523,0.39358 -0.116232,0.39358 -0.07507,0 -0.116233,-1.11462 -0.116233,-3.14708 z m 49.902916,2.098 4.029016,-0.0651 v -1.0664 -1.06641 H 61.856537 35.006803 v 1.13154 1.13154 H 57.82752 c 12.551394,0 24.633774,-0.0293 26.849734,-0.0651 z m 4.029016,-3.62466 v -1.32833 H 61.856537 35.006803 v 1.32833 1.32832 H 61.856537 88.70627 Z m 5.151418,-2.09083 c 1.650612,-0.0154 4.318151,-0.0154 5.927863,3e-5 1.609713,0.0154 0.259213,0.028 -3.001114,0.028 -3.260325,-2e-5 -4.577362,-0.0126 -2.926749,-0.028 z m -4.221557,-1.0086 c 0,-0.0633 1.161524,-0.0984 3.252107,-0.0984 h 3.252106 l 0.03401,-1.99249 0.03401,-1.99249 0.02651,1.99249 0.02651,1.99249 h 3.89379 c 2.51838,0 3.8938,0.0348 3.8938,0.0984 0,0.0645 -2.47963,0.0984 -7.206427,0.0984 -4.726793,0 -7.206422,-0.0339 -7.206422,-0.0984 z"
         id="path1" /></g></g></svg>
