<?xml version="1.0" encoding="UTF-8" standalone="no"?>
<!-- Created with Inkscape (http://www.inkscape.org/) -->

<svg
   width="109.12172mm"
   height="87.199104mm"
   viewBox="0 0 109.12172 87.199104"
   version="1.1"
   id="svg1"
   xmlns:xlink="http://www.w3.org/1999/xlink"
   xmlns="http://www.w3.org/2000/svg"
   xmlns:svg="http://www.w3.org/2000/svg"
   xmlns:rdf="http://www.w3.org/1999/02/22-rdf-syntax-ns#"
   xmlns:cc="http://creativecommons.org/ns#"
   xmlns:dc="http://purl.org/dc/elements/1.1/">
  <defs
     id="defs1">
    <symbol
       id="LeftAndDownArrow">
      <title
         id="title282">Left and Down Arrow</title>
      <path
         d="m 16.125,55.875 v -32 l 11,-11 v 24 l 23,-23 8,8 -23,23 h 24 l -11,11 z"
         style="stroke:none"
         id="path282" />
    </symbol>
    <symbol
       id="LeftAndDownArrow_Inv">
      <title
         id="title283">Left and Down Arrow</title>
      <rect
         x="0.5"
         y="0.5"
         width="71"
         height="71"
         ry="6"
         style="stroke:#ffffff"
         id="rect283" />
      <path
         d="m 16.125,55.875 v -32 l 11,-11 v 24 l 23,-23 8,8 -23,23 h 24 l -11,11 z"
         style="fill:#ffffff;stroke:none"
         id="path283" />
    </symbol>
    <symbol
       id="DownArrow_Inv">
      <title
         id="title285">Down Arrow</title>
      <rect
         x="0.5"
         y="0.5"
         width="71"
         height="71"
         ry="6"
         style="stroke:#ffffff"
         id="rect285" />
      <path
         d="M 36,63 14,41 V 26 L 30,42 V 10 H 42 V 42 L 58,26 v 15 z"
         style="fill:#ffffff;stroke:none"
         id="path285" />
    </symbol>
    <symbol
       id="RightAndDownArrow_Inv">
      <title
         id="title287">Right and Down Arrow</title>
      <rect
         x="0.5"
         y="0.5"
         width="71"
         height="71"
         ry="6"
         style="stroke:#ffffff"
         id="rect287" />
      <path
         d="M 56,56 H 24 L 13,45 H 37 L 14,22 22,14 45,37 V 13 l 11,11 z"
         style="fill:#ffffff;stroke:none"
         id="path287" />
    </symbol>
  </defs>
  <metadata
     id="metadata1">
    <rdf:RDF>
      <cc:Work
         rdf:about="">
        <dc:format>image/svg+xml</dc:format>
        <dc:type
           rdf:resource="http://purl.org/dc/dcmitype/StillImage" />
      </cc:Work>
    </rdf:RDF>
  </metadata>
  <g
     id="g4">
    <rect
       style="opacity:0.75;fill:#4d4d4d;stroke:#000000;stroke-width:0.264583"
       id="rect1"
       width="108.85714"
       height="86.934525"
       x="0.1322915"
       y="0.1322915" />
    <use
       xlink:href="#RightAndDownArrow_Inv"
       style="fill:#000000;stroke:#000000"
       id="use1"
       transform="matrix(0.87422973,0,0,0.77840478,24.524904,14.632041)" />
  </g>
</svg>
